G04 #@! TF.GenerationSoftware,KiCad,Pcbnew,8.0.1*
G04 #@! TF.CreationDate,2024-06-23T14:06:00+09:00*
G04 #@! TF.ProjectId,noraneko42gr,6e6f7261-6e65-46b6-9f34-3267722e6b69,rev?*
G04 #@! TF.SameCoordinates,Original*
G04 #@! TF.FileFunction,Soldermask,Top*
G04 #@! TF.FilePolarity,Negative*
%FSLAX46Y46*%
G04 Gerber Fmt 4.6, Leading zero omitted, Abs format (unit mm)*
G04 Created by KiCad (PCBNEW 8.0.1) date 2024-06-23 14:06:00*
%MOMM*%
%LPD*%
G01*
G04 APERTURE LIST*
%ADD10C,3.000000*%
%ADD11C,4.800000*%
%ADD12C,1.000000*%
%ADD13C,3.050000*%
%ADD14C,4.000000*%
%ADD15C,1.600000*%
G04 APERTURE END LIST*
D10*
X170876450Y-144105858D03*
D11*
X165573000Y-147356000D03*
D10*
X166087219Y-141478451D03*
D12*
X160108312Y-152449102D03*
D10*
X122293647Y-116496926D03*
D11*
X116880000Y-119560000D03*
D10*
X117599029Y-113703978D03*
D12*
X111240894Y-124459284D03*
D10*
X117305365Y-96239011D03*
D11*
X111946000Y-99396100D03*
D10*
X112562718Y-93528421D03*
D12*
X106393258Y-104393054D03*
D10*
X77883400Y-94172100D03*
D11*
X72883400Y-97872100D03*
D10*
X72883400Y-91972100D03*
D12*
X67883400Y-103422100D03*
D10*
X270131814Y-153238233D03*
D11*
X265620000Y-157520000D03*
D10*
X264900971Y-151663978D03*
D12*
X261333644Y-163637978D03*
D10*
X161326281Y-123511874D03*
D11*
X155860000Y-126480000D03*
D10*
X156681121Y-120637418D03*
D12*
X150136249Y-131280122D03*
D10*
X293271880Y-152358280D03*
D11*
X288271880Y-156058280D03*
D10*
X288271880Y-150158280D03*
D12*
X283271880Y-161608280D03*
D10*
X132499129Y-137981024D03*
D11*
X126885000Y-140659000D03*
D10*
X128010773Y-134867400D03*
D12*
X120917874Y-145152986D03*
D10*
X151333011Y-141857412D03*
D11*
X145673000Y-144437000D03*
D10*
X146899679Y-138665929D03*
D12*
X139628352Y-148826161D03*
D10*
X195540077Y-103926658D03*
D11*
X190810356Y-107966427D03*
D10*
X190398793Y-102080799D03*
D12*
X186209684Y-113851690D03*
D10*
X238792143Y-116323934D03*
D11*
X234590000Y-120910000D03*
D10*
X233464227Y-115118400D03*
D12*
X230740854Y-127312076D03*
D13*
X169058214Y-174458068D03*
D14*
X170915503Y-159331665D03*
D10*
X163513647Y-162996926D03*
D11*
X158100000Y-166060000D03*
D10*
X158819029Y-160203978D03*
D12*
X152460894Y-170959284D03*
D13*
X145435615Y-171557578D03*
D14*
X147292904Y-156431175D03*
D10*
X259349505Y-114483391D03*
D11*
X254550000Y-118440000D03*
D10*
X254241218Y-112548086D03*
D12*
X249847317Y-124244074D03*
D10*
X219851465Y-120091295D03*
D11*
X215730000Y-124750000D03*
D10*
X214503321Y-118978929D03*
D12*
X211993172Y-131218278D03*
D10*
X233912499Y-97837961D03*
D11*
X229710356Y-102424027D03*
D10*
X228584583Y-96632427D03*
D12*
X225861210Y-108826103D03*
D10*
X137190129Y-99737624D03*
D11*
X131576000Y-102415600D03*
D10*
X132701773Y-96624000D03*
D12*
X125608874Y-106909586D03*
D10*
X97192812Y-94482326D03*
D11*
X92129000Y-98094500D03*
D10*
X92231969Y-92195399D03*
D12*
X87032901Y-103556393D03*
D10*
X156254249Y-102922725D03*
D11*
X150737000Y-105795000D03*
D10*
X151659963Y-99967639D03*
D12*
X144930347Y-110494498D03*
D10*
X269067826Y-133337756D03*
D11*
X264200000Y-137210000D03*
D10*
X263994093Y-131313594D03*
D12*
X259396738Y-142931117D03*
D10*
X190410000Y-144520000D03*
D11*
X185410000Y-148220000D03*
D10*
X185410000Y-142320000D03*
D12*
X180410000Y-153770000D03*
D10*
X85027300Y-133331000D03*
D11*
X80027300Y-137031000D03*
D10*
X80027300Y-131131000D03*
D12*
X75027300Y-142581000D03*
D10*
X142094011Y-120429412D03*
D11*
X136434000Y-123009000D03*
D10*
X137660679Y-117237929D03*
D12*
X130389352Y-127398161D03*
D10*
X210159634Y-142193381D03*
D11*
X205800000Y-146630000D03*
D10*
X204877037Y-140802639D03*
D12*
X201729770Y-152893843D03*
D10*
X293402956Y-94180527D03*
D11*
X288402956Y-97880527D03*
D10*
X288402956Y-91980527D03*
D12*
X283402956Y-103430527D03*
D10*
X290820000Y-133260000D03*
D11*
X285820000Y-136960000D03*
D10*
X285820000Y-131060000D03*
D12*
X280820000Y-142510000D03*
D10*
X200498497Y-123598301D03*
D11*
X195840000Y-127720000D03*
D10*
X195325781Y-121842451D03*
D12*
X191342741Y-133684659D03*
D10*
X112366450Y-134659858D03*
D11*
X107063000Y-137910000D03*
D10*
X107577219Y-132032451D03*
D12*
X101598312Y-143003102D03*
D10*
X248360752Y-134735505D03*
D11*
X244040000Y-139210000D03*
D10*
X243066219Y-133390915D03*
D12*
X240024586Y-145509123D03*
D10*
X102225082Y-114302751D03*
D11*
X97099000Y-117826000D03*
D10*
X97304907Y-111929594D03*
D12*
X91908354Y-123198122D03*
D10*
X253926210Y-95202154D03*
D11*
X249340356Y-99404527D03*
D10*
X248723638Y-93536848D03*
D12*
X244947878Y-105446766D03*
D10*
X229070652Y-138275507D03*
D11*
X224990000Y-142970000D03*
D10*
X223713006Y-137209854D03*
D12*
X221309760Y-149470641D03*
D10*
X286074480Y-114133180D03*
D11*
X281074480Y-117833180D03*
D10*
X281074480Y-111933180D03*
D12*
X276074480Y-123383180D03*
D10*
X77870000Y-152660000D03*
D11*
X72870000Y-156360000D03*
D10*
X72870000Y-150460000D03*
D12*
X67870000Y-161910000D03*
D10*
X274092021Y-94316228D03*
D11*
X269157356Y-98102927D03*
D10*
X269054387Y-92203826D03*
D12*
X264254978Y-103739344D03*
D10*
X180866082Y-124736751D03*
D11*
X175740000Y-128260000D03*
D10*
X175945907Y-122363594D03*
D12*
X170549354Y-133632122D03*
D10*
X80264400Y-113702000D03*
D11*
X75264400Y-117402000D03*
D10*
X75264400Y-111502000D03*
D12*
X70264400Y-122952000D03*
D10*
X245551962Y-156847439D03*
D11*
X241390000Y-161470000D03*
D10*
X240213729Y-155688444D03*
D12*
X237596869Y-167905422D03*
D10*
X125296537Y-157874452D03*
D11*
X119730000Y-160650000D03*
D10*
X120754524Y-154839634D03*
D12*
X113842214Y-165247442D03*
D10*
X100513450Y-154189858D03*
D11*
X95210000Y-157440000D03*
D10*
X95724219Y-151562451D03*
D12*
X89745312Y-162533102D03*
D13*
X220344384Y-172137578D03*
D14*
X218487095Y-157011175D03*
D10*
X212191813Y-162358233D03*
D11*
X207679999Y-166640000D03*
D10*
X206960970Y-160783978D03*
D12*
X203393643Y-172757978D03*
D13*
X196721785Y-175038068D03*
D14*
X194864496Y-159911665D03*
D10*
X214908990Y-101366808D03*
D11*
X210549356Y-105803427D03*
D10*
X209626393Y-99976066D03*
D12*
X206479126Y-112067270D03*
D10*
X175721919Y-104615795D03*
D11*
X170476000Y-107958000D03*
D10*
X170887563Y-102072372D03*
D12*
X165101031Y-113145698D03*
D15*
X61286082Y-105152100D03*
X63826082Y-105152100D03*
X66366082Y-105152100D03*
X68906082Y-105152100D03*
X71446082Y-105152100D03*
X73986082Y-105152100D03*
X76526082Y-105152100D03*
X79066082Y-105152100D03*
X81606082Y-105152100D03*
X81816082Y-102612100D03*
X81816082Y-100072100D03*
X81816082Y-97532100D03*
X81606082Y-89912100D03*
X79066082Y-89912100D03*
X76526082Y-89912100D03*
X66366082Y-89912100D03*
X63826082Y-89912100D03*
X61286082Y-89912100D03*
M02*
