M48
; DRILL file {KiCad 8.0.1} date 2024-06-23T14:06:14+0900
; FORMAT={-:-/ absolute / metric / decimal}
; #@! TF.CreationDate,2024-06-23T14:06:14+09:00
; #@! TF.GenerationSoftware,Kicad,Pcbnew,8.0.1
; #@! TF.FileFunction,NonPlated,1,2,NPTH
FMAT,2
METRIC
; #@! TA.AperFunction,NonPlated,NPTH,ComponentDrill
T1C1.000
; #@! TA.AperFunction,NonPlated,NPTH,ComponentDrill
T2C3.000
; #@! TA.AperFunction,NonPlated,NPTH,ComponentDrill
T3C3.050
; #@! TA.AperFunction,NonPlated,NPTH,ComponentDrill
T4C4.000
; #@! TA.AperFunction,NonPlated,NPTH,ComponentDrill
T5C4.800
%
G90
G05
T1
X67.87Y-161.91
X67.883Y-103.422
X70.264Y-122.952
X75.027Y-142.581
X87.033Y-103.556
X89.745Y-162.533
X91.908Y-123.198
X101.598Y-143.003
X106.393Y-104.393
X111.241Y-124.459
X113.842Y-165.247
X120.918Y-145.153
X125.609Y-106.91
X130.389Y-127.398
X139.628Y-148.826
X144.93Y-110.494
X150.136Y-131.28
X152.461Y-170.959
X160.108Y-152.449
X165.101Y-113.146
X170.549Y-133.632
X180.41Y-153.77
X186.21Y-113.852
X191.343Y-133.685
X201.73Y-152.894
X203.394Y-172.758
X206.479Y-112.067
X211.993Y-131.218
X221.31Y-149.471
X225.861Y-108.826
X230.741Y-127.312
X237.597Y-167.905
X240.025Y-145.509
X244.948Y-105.447
X249.847Y-124.244
X259.397Y-142.931
X261.334Y-163.638
X264.255Y-103.739
X276.074Y-123.383
X280.82Y-142.51
X283.272Y-161.608
X283.403Y-103.431
T2
X72.87Y-150.46
X72.883Y-91.972
X75.264Y-111.502
X77.87Y-152.66
X77.883Y-94.172
X80.027Y-131.131
X80.264Y-113.702
X85.027Y-133.331
X92.232Y-92.195
X95.724Y-151.562
X97.193Y-94.482
X97.305Y-111.93
X100.513Y-154.19
X102.225Y-114.303
X107.577Y-132.032
X112.366Y-134.66
X112.563Y-93.528
X117.305Y-96.239
X117.599Y-113.704
X120.755Y-154.84
X122.294Y-116.497
X125.297Y-157.874
X128.011Y-134.867
X132.499Y-137.981
X132.702Y-96.624
X137.19Y-99.738
X137.661Y-117.238
X142.094Y-120.429
X146.9Y-138.666
X151.333Y-141.857
X151.66Y-99.968
X156.254Y-102.923
X156.681Y-120.637
X158.819Y-160.204
X161.326Y-123.512
X163.514Y-162.997
X166.087Y-141.478
X170.876Y-144.106
X170.888Y-102.072
X175.722Y-104.616
X175.946Y-122.364
X180.866Y-124.737
X185.41Y-142.32
X190.399Y-102.081
X190.41Y-144.52
X195.326Y-121.842
X195.54Y-103.927
X200.498Y-123.598
X204.877Y-140.803
X206.961Y-160.784
X209.626Y-99.976
X210.16Y-142.193
X212.192Y-162.358
X214.503Y-118.979
X214.909Y-101.367
X219.851Y-120.091
X223.713Y-137.21
X228.585Y-96.632
X229.071Y-138.276
X233.464Y-115.118
X233.912Y-97.838
X238.792Y-116.324
X240.214Y-155.688
X243.066Y-133.391
X245.552Y-156.847
X248.361Y-134.736
X248.724Y-93.537
X253.926Y-95.202
X254.241Y-112.548
X259.35Y-114.483
X263.994Y-131.314
X264.901Y-151.664
X269.054Y-92.204
X269.068Y-133.338
X270.132Y-153.238
X274.092Y-94.316
X281.074Y-111.933
X285.82Y-131.06
X286.074Y-114.133
X288.272Y-150.158
X288.403Y-91.981
X290.82Y-133.26
X293.272Y-152.358
X293.403Y-94.181
T3
X145.436Y-171.558
X169.058Y-174.458
X196.722Y-175.038
X220.344Y-172.138
T4
X147.293Y-156.431
X170.916Y-159.332
X194.864Y-159.912
X218.487Y-157.011
T5
X72.87Y-156.36
X72.883Y-97.872
X75.264Y-117.402
X80.027Y-137.031
X92.129Y-98.094
X95.21Y-157.44
X97.099Y-117.826
X107.063Y-137.91
X111.946Y-99.396
X116.88Y-119.56
X119.73Y-160.65
X126.885Y-140.659
X131.576Y-102.416
X136.434Y-123.009
X145.673Y-144.437
X150.737Y-105.795
X155.86Y-126.48
X158.1Y-166.06
X165.573Y-147.356
X170.476Y-107.958
X175.74Y-128.26
X185.41Y-148.22
X190.81Y-107.966
X195.84Y-127.72
X205.8Y-146.63
X207.68Y-166.64
X210.549Y-105.803
X215.73Y-124.75
X224.99Y-142.97
X229.71Y-102.424
X234.59Y-120.91
X241.39Y-161.47
X244.04Y-139.21
X249.34Y-99.405
X254.55Y-118.44
X264.2Y-137.21
X265.62Y-157.52
X269.157Y-98.103
X281.074Y-117.833
X285.82Y-136.96
X288.272Y-156.058
X288.403Y-97.881
M30
