G04 #@! TF.GenerationSoftware,KiCad,Pcbnew,8.0.1*
G04 #@! TF.CreationDate,2024-06-23T14:06:00+09:00*
G04 #@! TF.ProjectId,noraneko42gr,6e6f7261-6e65-46b6-9f34-3267722e6b69,rev?*
G04 #@! TF.SameCoordinates,Original*
G04 #@! TF.FileFunction,Soldermask,Bot*
G04 #@! TF.FilePolarity,Negative*
%FSLAX46Y46*%
G04 Gerber Fmt 4.6, Leading zero omitted, Abs format (unit mm)*
G04 Created by KiCad (PCBNEW 8.0.1) date 2024-06-23 14:06:00*
%MOMM*%
%LPD*%
G01*
G04 APERTURE LIST*
G04 Aperture macros list*
%AMRotRect*
0 Rectangle, with rotation*
0 The origin of the aperture is its center*
0 $1 length*
0 $2 width*
0 $3 Rotation angle, in degrees counterclockwise*
0 Add horizontal line*
21,1,$1,$2,0,0,$3*%
G04 Aperture macros list end*
%ADD10C,3.000000*%
%ADD11C,4.800000*%
%ADD12C,1.000000*%
%ADD13RotRect,3.000000X3.500000X355.000000*%
%ADD14RotRect,3.000000X3.500000X353.000000*%
%ADD15RotRect,3.000000X3.500000X354.000000*%
%ADD16R,3.000000X3.500000*%
%ADD17RotRect,3.000000X3.500000X7.000000*%
%ADD18RotRect,3.000000X3.500000X352.000000*%
%ADD19RotRect,3.000000X3.500000X349.000000*%
%ADD20RotRect,3.000000X3.500000X348.000000*%
%ADD21RotRect,3.000000X3.500000X4.000000*%
%ADD22RotRect,3.000000X3.500000X11.000000*%
%ADD23C,3.050000*%
%ADD24C,4.000000*%
%ADD25RotRect,3.000000X3.500000X3.000000*%
%ADD26RotRect,3.000000X3.500000X12.000000*%
%ADD27RotRect,3.000000X3.500000X359.000000*%
%ADD28RotRect,3.000000X3.500000X351.000000*%
%ADD29RotRect,3.000000X3.500000X2.000000*%
%ADD30RotRect,3.000000X3.500000X9.000000*%
%ADD31RotRect,3.000000X3.500000X5.000000*%
%ADD32RotRect,3.000000X3.500000X9.500000*%
%ADD33RotRect,3.000000X3.500000X358.000000*%
%ADD34RotRect,3.000000X3.500000X6.000000*%
%ADD35RotRect,3.000000X3.500000X12.500000*%
%ADD36RotRect,3.000000X3.500000X1.000000*%
%ADD37RotRect,3.000000X3.500000X11.500000*%
%ADD38RotRect,3.000000X3.500000X350.000000*%
%ADD39RotRect,3.000000X3.500000X356.000000*%
%ADD40RotRect,2.500000X1.200000X11.000000*%
%ADD41R,1.250000X1.700000*%
%ADD42RotRect,2.500000X1.200000X3.000000*%
%ADD43R,2.500000X1.200000*%
%ADD44RotRect,2.500000X1.200000X9.000000*%
%ADD45RotRect,2.500000X1.200000X352.000000*%
%ADD46RotRect,2.500000X1.200000X353.000000*%
%ADD47RotRect,1.700000X1.250000X82.000000*%
%ADD48RotRect,1.700000X1.250000X95.000000*%
%ADD49RotRect,2.500000X1.200000X358.000000*%
%ADD50RotRect,1.700000X1.250000X79.000000*%
%ADD51RotRect,2.500000X1.200000X349.000000*%
%ADD52RotRect,2.500000X1.200000X11.500000*%
%ADD53RotRect,1.700000X1.250000X102.000000*%
%ADD54RotRect,1.700000X1.250000X96.000000*%
%ADD55RotRect,2.500000X1.200000X1.000000*%
%ADD56RotRect,1.700000X1.250000X83.000000*%
%ADD57RotRect,1.700000X1.250000X102.500000*%
%ADD58RotRect,1.700000X1.250000X86.000000*%
%ADD59RotRect,1.700000X1.250000X94.000000*%
%ADD60RotRect,1.700000X1.250000X78.000000*%
%ADD61RotRect,1.700000X1.250000X85.000000*%
%ADD62RotRect,2.500000X1.200000X354.000000*%
%ADD63RotRect,1.700000X1.250000X101.000000*%
%ADD64R,2.500000X1.500000*%
%ADD65RotRect,2.500000X1.200000X351.000000*%
%ADD66RotRect,2.500000X1.200000X4.000000*%
%ADD67RotRect,2.500000X1.200000X356.000000*%
%ADD68RotRect,2.500000X1.200000X348.000000*%
%ADD69RotRect,1.700000X1.250000X89.000000*%
%ADD70RotRect,2.500000X1.200000X350.000000*%
%ADD71RotRect,1.700000X1.250000X99.000000*%
%ADD72RotRect,1.700000X1.250000X92.000000*%
%ADD73RotRect,1.700000X1.250000X84.000000*%
%ADD74RotRect,1.700000X1.250000X97.000000*%
%ADD75RotRect,1.700000X1.250000X80.000000*%
%ADD76RotRect,2.500000X1.200000X2.000000*%
%ADD77RotRect,1.700000X1.250000X101.500000*%
%ADD78RotRect,2.500000X1.200000X5.000000*%
%ADD79RotRect,2.500000X1.200000X355.000000*%
%ADD80RotRect,1.700000X1.250000X93.000000*%
%ADD81RotRect,2.500000X1.200000X359.000000*%
%ADD82RotRect,2.500000X1.200000X6.000000*%
%ADD83RotRect,2.500000X1.200000X12.000000*%
%ADD84RotRect,1.700000X1.250000X99.500000*%
%ADD85RotRect,1.700000X1.250000X91.000000*%
%ADD86RotRect,1.700000X1.250000X88.000000*%
%ADD87RotRect,1.700000X1.250000X81.000000*%
%ADD88RotRect,2.500000X1.200000X9.500000*%
%ADD89C,1.600000*%
%ADD90RotRect,2.500000X1.200000X12.500000*%
%ADD91RotRect,2.500000X1.200000X7.000000*%
G04 APERTURE END LIST*
D10*
X170876450Y-144105858D03*
D11*
X165573000Y-147356000D03*
D10*
X166087219Y-141478451D03*
D12*
X160108312Y-152449102D03*
D13*
X174213702Y-144397830D03*
X162550728Y-141169048D03*
D10*
X122293647Y-116496926D03*
D11*
X116880000Y-119560000D03*
D10*
X117599029Y-113703978D03*
D12*
X111240894Y-124459284D03*
D14*
X125618677Y-116905188D03*
X114075490Y-113271342D03*
D10*
X117305365Y-96239011D03*
D11*
X111946000Y-99396100D03*
D10*
X112562718Y-93528421D03*
D12*
X106393258Y-104393054D03*
D15*
X120637013Y-96589182D03*
X109032165Y-93157345D03*
D10*
X77883400Y-94172100D03*
D11*
X72883400Y-97872100D03*
D10*
X72883400Y-91972100D03*
D12*
X67883400Y-103422100D03*
D16*
X81233400Y-94172100D03*
X69333400Y-91972100D03*
D10*
X270131814Y-153238233D03*
D11*
X265620000Y-157520000D03*
D10*
X264900971Y-151663978D03*
D12*
X261333644Y-163637978D03*
D17*
X273456844Y-152829970D03*
X261377432Y-152096614D03*
D10*
X161326281Y-123511874D03*
D11*
X155860000Y-126480000D03*
D10*
X156681121Y-120637418D03*
D12*
X150136249Y-131280122D03*
D18*
X164643679Y-123978104D03*
X153165670Y-120143354D03*
D10*
X293271880Y-152358280D03*
D11*
X288271880Y-156058280D03*
D10*
X288271880Y-150158280D03*
D12*
X283271880Y-161608280D03*
D16*
X296621880Y-152358280D03*
X284721880Y-150158280D03*
D10*
X132499129Y-137981024D03*
D11*
X126885000Y-140659000D03*
D10*
X128010773Y-134867400D03*
D12*
X120917874Y-145152986D03*
D19*
X135787580Y-138620236D03*
X124525997Y-134190028D03*
D10*
X151333011Y-141857412D03*
D11*
X145673000Y-144437000D03*
D10*
X146899679Y-138665929D03*
D12*
X139628352Y-148826161D03*
D20*
X154609806Y-142553916D03*
X143427255Y-137927843D03*
D10*
X195540077Y-103926658D03*
D11*
X190810356Y-107966427D03*
D10*
X190398793Y-102080799D03*
D12*
X186209684Y-113851690D03*
D21*
X198881917Y-103692973D03*
X186857440Y-102328435D03*
D10*
X238792143Y-116323934D03*
D11*
X234590000Y-120910000D03*
D10*
X233464227Y-115118400D03*
D12*
X230740854Y-127312076D03*
D22*
X242080594Y-115684724D03*
X229979449Y-115795772D03*
D23*
X169058214Y-174458068D03*
D24*
X170915503Y-159331665D03*
D10*
X163513647Y-162996926D03*
D11*
X158100000Y-166060000D03*
D10*
X158819029Y-160203978D03*
D12*
X152460894Y-170959284D03*
D23*
X145435615Y-171557578D03*
D24*
X147292904Y-156431175D03*
D14*
X166838677Y-163405188D03*
X155295490Y-159771342D03*
D10*
X259349505Y-114483391D03*
D11*
X254550000Y-118440000D03*
D10*
X254241218Y-112548086D03*
D12*
X249847317Y-124244074D03*
D25*
X262694914Y-114308065D03*
X250696083Y-112733878D03*
D10*
X219851465Y-120091295D03*
D11*
X215730000Y-124750000D03*
D10*
X214503321Y-118978929D03*
D12*
X211993172Y-131218278D03*
D26*
X223128259Y-119394791D03*
X211030897Y-119717016D03*
D10*
X233912499Y-97837961D03*
D11*
X229710356Y-102424027D03*
D10*
X228584583Y-96632427D03*
D12*
X225861210Y-108826103D03*
D22*
X237200950Y-97198751D03*
X225099805Y-97309799D03*
D10*
X137190129Y-99737624D03*
D11*
X131576000Y-102415600D03*
D10*
X132701773Y-96624000D03*
D12*
X125608874Y-106909586D03*
D19*
X140478580Y-100376836D03*
X129216997Y-95946628D03*
D10*
X97192812Y-94482326D03*
D11*
X92129000Y-98094500D03*
D10*
X92231969Y-92195399D03*
D12*
X87032901Y-103556393D03*
D27*
X100542302Y-94540791D03*
X88682510Y-92133443D03*
D10*
X156254249Y-102922725D03*
D11*
X150737000Y-105795000D03*
D10*
X151659963Y-99967639D03*
D12*
X144930347Y-110494498D03*
D28*
X159563005Y-103446781D03*
X148153670Y-99412296D03*
D10*
X269067826Y-133337756D03*
D11*
X264200000Y-137210000D03*
D10*
X263994093Y-131313594D03*
D12*
X259396738Y-142931117D03*
D29*
X272415785Y-133220843D03*
X260446256Y-131437487D03*
D10*
X190410000Y-144520000D03*
D11*
X185410000Y-148220000D03*
D10*
X185410000Y-142320000D03*
D12*
X180410000Y-153770000D03*
D16*
X193760000Y-144520000D03*
X181860000Y-142320000D03*
D10*
X85027300Y-133331000D03*
D11*
X80027300Y-137031000D03*
D10*
X80027300Y-131131000D03*
D12*
X75027300Y-142581000D03*
D16*
X88377300Y-133331000D03*
X76477300Y-131131000D03*
D10*
X142094011Y-120429412D03*
D11*
X136434000Y-123009000D03*
D10*
X137660679Y-117237929D03*
D12*
X130389352Y-127398161D03*
D20*
X145370806Y-121125916D03*
X134188255Y-116499843D03*
D10*
X210159634Y-142193381D03*
D11*
X205800000Y-146630000D03*
D10*
X204877037Y-140802639D03*
D12*
X201729770Y-152893843D03*
D30*
X213468390Y-141669325D03*
X201370743Y-141357981D03*
D10*
X293402956Y-94180527D03*
D11*
X288402956Y-97880527D03*
D10*
X288402956Y-91980527D03*
D12*
X283402956Y-103430527D03*
D16*
X296752956Y-94180527D03*
X284852956Y-91980527D03*
D10*
X290820000Y-133260000D03*
D11*
X285820000Y-136960000D03*
D10*
X285820000Y-131060000D03*
D12*
X280820000Y-142510000D03*
D16*
X294170000Y-133260000D03*
X282270000Y-131060000D03*
D10*
X200498497Y-123598301D03*
D11*
X195840000Y-127720000D03*
D10*
X195325781Y-121842451D03*
D12*
X191342741Y-133684659D03*
D31*
X203835749Y-123306329D03*
X191789290Y-122151854D03*
D10*
X112366450Y-134659858D03*
D11*
X107063000Y-137910000D03*
D10*
X107577219Y-132032451D03*
D12*
X101598312Y-143003102D03*
D13*
X115703702Y-134951830D03*
X104040728Y-131723048D03*
D10*
X248360752Y-134735505D03*
D11*
X244040000Y-139210000D03*
D10*
X243066219Y-133390915D03*
D12*
X240024586Y-145509123D03*
D32*
X251664809Y-134182596D03*
X239564905Y-133976834D03*
D10*
X102225082Y-114302751D03*
D11*
X97099000Y-117826000D03*
D10*
X97304907Y-111929594D03*
D12*
X91908354Y-123198122D03*
D33*
X105573042Y-114419665D03*
X93757070Y-111805701D03*
D10*
X253926210Y-95202154D03*
D11*
X249340356Y-99404527D03*
D10*
X248723638Y-93536848D03*
D12*
X244947878Y-105446766D03*
D34*
X257257861Y-94851983D03*
X245193085Y-93907924D03*
D10*
X229070652Y-138275507D03*
D11*
X224990000Y-142970000D03*
D10*
X223713006Y-137209854D03*
D12*
X221309760Y-149470641D03*
D35*
X232341245Y-137550434D03*
X220247155Y-137978214D03*
D10*
X286074480Y-114133180D03*
D11*
X281074480Y-117833180D03*
D10*
X281074480Y-111933180D03*
D12*
X276074480Y-123383180D03*
D16*
X289424480Y-114133180D03*
X277524480Y-111933180D03*
D10*
X77870000Y-152660000D03*
D11*
X72870000Y-156360000D03*
D10*
X72870000Y-150460000D03*
D12*
X67870000Y-161910000D03*
D16*
X81220000Y-152660000D03*
X69320000Y-150460000D03*
D10*
X274092021Y-94316228D03*
D11*
X269157356Y-98102927D03*
D10*
X269054387Y-92203826D03*
D12*
X264254978Y-103739344D03*
D36*
X277441510Y-94257763D03*
X265504927Y-92265782D03*
D10*
X180866082Y-124736751D03*
D11*
X175740000Y-128260000D03*
D10*
X175945907Y-122363594D03*
D12*
X170549354Y-133632122D03*
D33*
X184214042Y-124853665D03*
X172398070Y-122239701D03*
D10*
X80264400Y-113702000D03*
D11*
X75264400Y-117402000D03*
D10*
X75264400Y-111502000D03*
D12*
X70264400Y-122952000D03*
D16*
X83614400Y-113702000D03*
X71714400Y-111502000D03*
D10*
X245551962Y-156847439D03*
D11*
X241390000Y-161470000D03*
D10*
X240213729Y-155688444D03*
D12*
X237596869Y-167905422D03*
D37*
X248834710Y-156179556D03*
X236734996Y-156396200D03*
D10*
X125296537Y-157874452D03*
D11*
X119730000Y-160650000D03*
D10*
X120754524Y-154839634D03*
D12*
X113842214Y-165247442D03*
D38*
X128595643Y-158456174D03*
X117258457Y-154223183D03*
D10*
X100513450Y-154189858D03*
D11*
X95210000Y-157440000D03*
D10*
X95724219Y-151562451D03*
D12*
X89745312Y-162533102D03*
D13*
X103850702Y-154481830D03*
X92187728Y-151253048D03*
D23*
X220344384Y-172137578D03*
D24*
X218487095Y-157011175D03*
D10*
X212191813Y-162358233D03*
D11*
X207679999Y-166640000D03*
D10*
X206960970Y-160783978D03*
D12*
X203393643Y-172757978D03*
D23*
X196721785Y-175038068D03*
D24*
X194864496Y-159911665D03*
D17*
X215516843Y-161949970D03*
X203437431Y-161216614D03*
D10*
X214908990Y-101366808D03*
D11*
X210549356Y-105803427D03*
D10*
X209626393Y-99976066D03*
D12*
X206479126Y-112067270D03*
D30*
X218217746Y-100842752D03*
X206120099Y-100531408D03*
D10*
X175721919Y-104615795D03*
D11*
X170476000Y-107958000D03*
D10*
X170887563Y-102072372D03*
D12*
X165101031Y-113145698D03*
D39*
X179063759Y-104849480D03*
X167346211Y-101824737D03*
D40*
X239230642Y-126233335D03*
X238906267Y-124564569D03*
X232731556Y-125815747D03*
X233046391Y-127435431D03*
D41*
X68880000Y-99020000D03*
X68880000Y-95420000D03*
D42*
X258397576Y-124483977D03*
X258308604Y-122786307D03*
X252019855Y-123165955D03*
X252106210Y-124813693D03*
D43*
X78749500Y-123705000D03*
X78749500Y-122005000D03*
X72449500Y-122055000D03*
X72449500Y-123705000D03*
D44*
X215041095Y-111346769D03*
X214775156Y-109667696D03*
X208560541Y-110702618D03*
X208818658Y-112332304D03*
D45*
X158451047Y-133230123D03*
X158687642Y-131546667D03*
X152441994Y-130719390D03*
X152212358Y-132353333D03*
D46*
X119572931Y-126399617D03*
X119780109Y-124712288D03*
X113520975Y-123994139D03*
X113319891Y-125631840D03*
D47*
X151704730Y-127659006D03*
X152205754Y-124094036D03*
D48*
X192031975Y-129975329D03*
X191718215Y-126389029D03*
D49*
X179087778Y-134565827D03*
X179147107Y-132866862D03*
X172849199Y-132696965D03*
X172791615Y-134345960D03*
D50*
X122832004Y-141612159D03*
X123518916Y-138078301D03*
D51*
X133829938Y-109260431D03*
X134154313Y-107591665D03*
X127960522Y-106438650D03*
X127645687Y-108058335D03*
D52*
X246156226Y-166929927D03*
X245817300Y-165264055D03*
X239653743Y-166569069D03*
X239982700Y-168185945D03*
D53*
X212319787Y-127315864D03*
X211571305Y-123794532D03*
D50*
X127482004Y-103342159D03*
X128168916Y-99808301D03*
D43*
X83550000Y-143235000D03*
X83550000Y-141535000D03*
X77250000Y-141585000D03*
X77250000Y-143235000D03*
D54*
X245593288Y-101182753D03*
X245216986Y-97602475D03*
D55*
X272789355Y-104236592D03*
X272759686Y-102536851D03*
X266461518Y-102696794D03*
X266490314Y-104346543D03*
D56*
X154025822Y-167273537D03*
X154464552Y-163700371D03*
D57*
X221635185Y-145642744D03*
X220856003Y-142128078D03*
D58*
X166334438Y-109435615D03*
X166585562Y-105844385D03*
D59*
X187050623Y-109927359D03*
X186799499Y-106336129D03*
D60*
X132261305Y-123855469D03*
X133009787Y-120334137D03*
D61*
X91228215Y-158790971D03*
X91541975Y-155204671D03*
D41*
X68985000Y-158050000D03*
X68985000Y-154450000D03*
D62*
X114743895Y-106074608D03*
X114921593Y-104383921D03*
X108650879Y-103775118D03*
X108478407Y-105416079D03*
D63*
X226188916Y-104911699D03*
X225502004Y-101377841D03*
D64*
X99000000Y-107140000D03*
X99000000Y-103840000D03*
X103900000Y-103840000D03*
X103900000Y-107140000D03*
D65*
X153253249Y-112582304D03*
X153519188Y-110903231D03*
X147288929Y-109967081D03*
X147030812Y-111596769D03*
D46*
X160772931Y-172802553D03*
X160980109Y-171115224D03*
X154720975Y-170397075D03*
X154519891Y-172034776D03*
D61*
X103068215Y-139150971D03*
X103381975Y-135564671D03*
D66*
X194786568Y-113903197D03*
X194667982Y-112207338D03*
X188386816Y-112696682D03*
X188501914Y-114342662D03*
D63*
X231118916Y-123501699D03*
X230432004Y-119967841D03*
D67*
X173533034Y-114492662D03*
X173651620Y-112796803D03*
X167363478Y-112407216D03*
X167248380Y-114053197D03*
D68*
X138521661Y-130219043D03*
X138875111Y-128556192D03*
X132702385Y-127295256D03*
X132359331Y-128909200D03*
D69*
X88038586Y-99609726D03*
X88101414Y-96010274D03*
D43*
X289349500Y-143160000D03*
X289349500Y-141460000D03*
X283049500Y-141510000D03*
X283049500Y-143160000D03*
D70*
X122104542Y-167509078D03*
X122399745Y-165834905D03*
X116186774Y-164790162D03*
X115900255Y-166415095D03*
D71*
X202186890Y-148941750D03*
X201623726Y-145386072D03*
D72*
X260337835Y-138919776D03*
X260212197Y-135321970D03*
D61*
X161498215Y-148710971D03*
X161811975Y-145124671D03*
D73*
X107916986Y-100567526D03*
X108293288Y-96987248D03*
D74*
X204004552Y-168869630D03*
X203565822Y-165296464D03*
D64*
X178250000Y-118120000D03*
X178250000Y-114820000D03*
X183150000Y-114820000D03*
X183150000Y-118120000D03*
X257300000Y-106690000D03*
X257300000Y-103390000D03*
X262200000Y-103390000D03*
X262200000Y-106690000D03*
D41*
X76185000Y-138920000D03*
X76185000Y-135320000D03*
D43*
X76400000Y-103010000D03*
X76400000Y-101310000D03*
X70100000Y-101360000D03*
X70100000Y-103010000D03*
D68*
X147721661Y-151669043D03*
X148075111Y-150006192D03*
X141902385Y-148745256D03*
X141559331Y-150359200D03*
D74*
X261904552Y-159669630D03*
X261465822Y-156096464D03*
D41*
X284335000Y-157660000D03*
X284335000Y-154060000D03*
D75*
X115672813Y-161658313D03*
X116297947Y-158113005D03*
D43*
X291949500Y-104089473D03*
X291949500Y-102389473D03*
X285649500Y-102439473D03*
X285649500Y-104089473D03*
D60*
X141491305Y-145275469D03*
X142239787Y-141754137D03*
D41*
X277215000Y-119520000D03*
X277215000Y-115920000D03*
D64*
X113290000Y-146000000D03*
X113290000Y-142700000D03*
X118190000Y-142700000D03*
X118190000Y-146000000D03*
D40*
X234330642Y-108033335D03*
X234006267Y-106364569D03*
X227831556Y-107615747D03*
X228146391Y-109235431D03*
D76*
X267977746Y-143239549D03*
X267918417Y-141540584D03*
X261623999Y-141810421D03*
X261681583Y-143459416D03*
D77*
X237784364Y-163818848D03*
X237066640Y-160291122D03*
D41*
X284465000Y-99650000D03*
X284465000Y-96050000D03*
D64*
X251660000Y-146370000D03*
X251660000Y-143070000D03*
X256560000Y-143070000D03*
X256560000Y-146370000D03*
D56*
X112855822Y-120773537D03*
X113294552Y-117200371D03*
D78*
X199999536Y-133632225D03*
X199851371Y-131938694D03*
X193579702Y-132537585D03*
X193723509Y-134181306D03*
D79*
X98263931Y-163971306D03*
X98412096Y-162277775D03*
X92131711Y-161778504D03*
X91987904Y-163422225D03*
D80*
X250829239Y-120447533D03*
X250640829Y-116852467D03*
D81*
X95569137Y-104355568D03*
X95598806Y-102655827D03*
X89298893Y-102595869D03*
X89270096Y-104245617D03*
D49*
X100368417Y-124434416D03*
X100427746Y-122735451D03*
X94129838Y-122565554D03*
X94072254Y-124214549D03*
D43*
X291849500Y-162265000D03*
X291849500Y-160565000D03*
X285549500Y-160615000D03*
X285549500Y-162265000D03*
D82*
X253511476Y-105141079D03*
X253333778Y-103450392D03*
X247073516Y-104158647D03*
X247245988Y-105799608D03*
D83*
X220532890Y-130351504D03*
X220179440Y-128688653D03*
X214027506Y-130047404D03*
X214370560Y-131661347D03*
D79*
X168563931Y-153996306D03*
X168712096Y-152302775D03*
X162431711Y-151803504D03*
X162287904Y-153447225D03*
D84*
X240582429Y-141459440D03*
X239988257Y-137908812D03*
D85*
X265246418Y-99360162D03*
X265183590Y-95760710D03*
D86*
X171742197Y-129818031D03*
X171867835Y-126220225D03*
D44*
X210244188Y-152196769D03*
X209978249Y-150517696D03*
X203763634Y-151552618D03*
X204021751Y-153182304D03*
D64*
X182580000Y-162590000D03*
X182580000Y-159290000D03*
X187480000Y-159290000D03*
X187480000Y-162590000D03*
D41*
X71335000Y-118980000D03*
X71335000Y-115380000D03*
D43*
X76375000Y-162560000D03*
X76375000Y-160860000D03*
X70075000Y-160910000D03*
X70075000Y-162560000D03*
D87*
X146663726Y-106753928D03*
X147226890Y-103198250D03*
D88*
X248520122Y-144693443D03*
X248239541Y-143016757D03*
X242034194Y-144105870D03*
X242306523Y-145733243D03*
D43*
X188950000Y-154420000D03*
X188950000Y-152720000D03*
X182650000Y-152770000D03*
X182650000Y-154420000D03*
D41*
X181570000Y-149700000D03*
X181570000Y-146100000D03*
D89*
X61286082Y-105152100D03*
X63826082Y-105152100D03*
X66366082Y-105152100D03*
X68906082Y-105152100D03*
X71446082Y-105152100D03*
X73986082Y-105152100D03*
X76526082Y-105152100D03*
X79066082Y-105152100D03*
X81606082Y-105152100D03*
X81816082Y-102612100D03*
X81816082Y-100072100D03*
X81816082Y-97532100D03*
X81606082Y-89912100D03*
X79066082Y-89912100D03*
X76526082Y-89912100D03*
X66366082Y-89912100D03*
X63826082Y-89912100D03*
X61286082Y-89912100D03*
D71*
X207016890Y-108261750D03*
X206453726Y-104706072D03*
D43*
X284649500Y-124040000D03*
X284649500Y-122340000D03*
X278349500Y-122390000D03*
X278349500Y-124040000D03*
D90*
X229788811Y-148248067D03*
X229420864Y-146588364D03*
X223281021Y-148000748D03*
X223638146Y-149611636D03*
D91*
X269872385Y-163289776D03*
X269665207Y-161602447D03*
X263418260Y-162419852D03*
X263619345Y-164057553D03*
D86*
X93102197Y-119228031D03*
X93227835Y-115630225D03*
D79*
X110038931Y-144571306D03*
X110187096Y-142877775D03*
X103906711Y-142378504D03*
X103762904Y-144022225D03*
D51*
X129179938Y-147510431D03*
X129504313Y-145841665D03*
X123310522Y-144688650D03*
X122995687Y-146308335D03*
D91*
X211980109Y-172334776D03*
X211772931Y-170647447D03*
X205525984Y-171464852D03*
X205727069Y-173102553D03*
D41*
X282035000Y-138750000D03*
X282035000Y-135150000D03*
M02*
