G04 #@! TF.GenerationSoftware,KiCad,Pcbnew,8.0.1*
G04 #@! TF.CreationDate,2024-06-23T14:06:00+09:00*
G04 #@! TF.ProjectId,noraneko42gr,6e6f7261-6e65-46b6-9f34-3267722e6b69,rev?*
G04 #@! TF.SameCoordinates,Original*
G04 #@! TF.FileFunction,Paste,Bot*
G04 #@! TF.FilePolarity,Positive*
%FSLAX46Y46*%
G04 Gerber Fmt 4.6, Leading zero omitted, Abs format (unit mm)*
G04 Created by KiCad (PCBNEW 8.0.1) date 2024-06-23 14:06:00*
%MOMM*%
%LPD*%
G01*
G04 APERTURE LIST*
G04 Aperture macros list*
%AMRotRect*
0 Rectangle, with rotation*
0 The origin of the aperture is its center*
0 $1 length*
0 $2 width*
0 $3 Rotation angle, in degrees counterclockwise*
0 Add horizontal line*
21,1,$1,$2,0,0,$3*%
G04 Aperture macros list end*
%ADD10RotRect,3.000000X3.500000X355.000000*%
%ADD11RotRect,3.000000X3.500000X353.000000*%
%ADD12RotRect,3.000000X3.500000X354.000000*%
%ADD13R,3.000000X3.500000*%
%ADD14RotRect,3.000000X3.500000X7.000000*%
%ADD15RotRect,3.000000X3.500000X352.000000*%
%ADD16RotRect,3.000000X3.500000X349.000000*%
%ADD17RotRect,3.000000X3.500000X348.000000*%
%ADD18RotRect,3.000000X3.500000X4.000000*%
%ADD19RotRect,3.000000X3.500000X11.000000*%
%ADD20RotRect,3.000000X3.500000X3.000000*%
%ADD21RotRect,3.000000X3.500000X12.000000*%
%ADD22RotRect,3.000000X3.500000X359.000000*%
%ADD23RotRect,3.000000X3.500000X351.000000*%
%ADD24RotRect,3.000000X3.500000X2.000000*%
%ADD25RotRect,3.000000X3.500000X9.000000*%
%ADD26RotRect,3.000000X3.500000X5.000000*%
%ADD27RotRect,3.000000X3.500000X9.500000*%
%ADD28RotRect,3.000000X3.500000X358.000000*%
%ADD29RotRect,3.000000X3.500000X6.000000*%
%ADD30RotRect,3.000000X3.500000X12.500000*%
%ADD31RotRect,3.000000X3.500000X1.000000*%
%ADD32RotRect,3.000000X3.500000X11.500000*%
%ADD33RotRect,3.000000X3.500000X350.000000*%
%ADD34RotRect,3.000000X3.500000X356.000000*%
%ADD35RotRect,2.500000X1.200000X11.000000*%
%ADD36R,1.250000X1.700000*%
%ADD37RotRect,2.500000X1.200000X3.000000*%
%ADD38R,2.500000X1.200000*%
%ADD39RotRect,2.500000X1.200000X9.000000*%
%ADD40RotRect,2.500000X1.200000X352.000000*%
%ADD41RotRect,2.500000X1.200000X353.000000*%
%ADD42RotRect,1.700000X1.250000X82.000000*%
%ADD43RotRect,1.700000X1.250000X95.000000*%
%ADD44RotRect,2.500000X1.200000X358.000000*%
%ADD45RotRect,1.700000X1.250000X79.000000*%
%ADD46RotRect,2.500000X1.200000X349.000000*%
%ADD47RotRect,2.500000X1.200000X11.500000*%
%ADD48RotRect,1.700000X1.250000X102.000000*%
%ADD49RotRect,1.700000X1.250000X96.000000*%
%ADD50RotRect,2.500000X1.200000X1.000000*%
%ADD51RotRect,1.700000X1.250000X83.000000*%
%ADD52RotRect,1.700000X1.250000X102.500000*%
%ADD53RotRect,1.700000X1.250000X86.000000*%
%ADD54RotRect,1.700000X1.250000X94.000000*%
%ADD55RotRect,1.700000X1.250000X78.000000*%
%ADD56RotRect,1.700000X1.250000X85.000000*%
%ADD57RotRect,2.500000X1.200000X354.000000*%
%ADD58RotRect,1.700000X1.250000X101.000000*%
%ADD59R,2.500000X1.500000*%
%ADD60RotRect,2.500000X1.200000X351.000000*%
%ADD61RotRect,2.500000X1.200000X4.000000*%
%ADD62RotRect,2.500000X1.200000X356.000000*%
%ADD63RotRect,2.500000X1.200000X348.000000*%
%ADD64RotRect,1.700000X1.250000X89.000000*%
%ADD65RotRect,2.500000X1.200000X350.000000*%
%ADD66RotRect,1.700000X1.250000X99.000000*%
%ADD67RotRect,1.700000X1.250000X92.000000*%
%ADD68RotRect,1.700000X1.250000X84.000000*%
%ADD69RotRect,1.700000X1.250000X97.000000*%
%ADD70RotRect,1.700000X1.250000X80.000000*%
%ADD71RotRect,2.500000X1.200000X2.000000*%
%ADD72RotRect,1.700000X1.250000X101.500000*%
%ADD73RotRect,2.500000X1.200000X5.000000*%
%ADD74RotRect,2.500000X1.200000X355.000000*%
%ADD75RotRect,1.700000X1.250000X93.000000*%
%ADD76RotRect,2.500000X1.200000X359.000000*%
%ADD77RotRect,2.500000X1.200000X6.000000*%
%ADD78RotRect,2.500000X1.200000X12.000000*%
%ADD79RotRect,1.700000X1.250000X99.500000*%
%ADD80RotRect,1.700000X1.250000X91.000000*%
%ADD81RotRect,1.700000X1.250000X88.000000*%
%ADD82RotRect,1.700000X1.250000X81.000000*%
%ADD83RotRect,2.500000X1.200000X9.500000*%
%ADD84RotRect,2.500000X1.200000X12.500000*%
%ADD85RotRect,2.500000X1.200000X7.000000*%
G04 APERTURE END LIST*
D10*
X174213702Y-144397830D03*
X162550728Y-141169048D03*
D11*
X125618677Y-116905188D03*
X114075490Y-113271342D03*
D12*
X120637013Y-96589182D03*
X109032165Y-93157345D03*
D13*
X81233400Y-94172100D03*
X69333400Y-91972100D03*
D14*
X273456844Y-152829970D03*
X261377432Y-152096614D03*
D15*
X164643679Y-123978104D03*
X153165670Y-120143354D03*
D13*
X296621880Y-152358280D03*
X284721880Y-150158280D03*
D16*
X135787580Y-138620236D03*
X124525997Y-134190028D03*
D17*
X154609806Y-142553916D03*
X143427255Y-137927843D03*
D18*
X198881917Y-103692973D03*
X186857440Y-102328435D03*
D19*
X242080594Y-115684724D03*
X229979449Y-115795772D03*
D11*
X166838677Y-163405188D03*
X155295490Y-159771342D03*
D20*
X262694914Y-114308065D03*
X250696083Y-112733878D03*
D21*
X223128259Y-119394791D03*
X211030897Y-119717016D03*
D19*
X237200950Y-97198751D03*
X225099805Y-97309799D03*
D16*
X140478580Y-100376836D03*
X129216997Y-95946628D03*
D22*
X100542302Y-94540791D03*
X88682510Y-92133443D03*
D23*
X159563005Y-103446781D03*
X148153670Y-99412296D03*
D24*
X272415785Y-133220843D03*
X260446256Y-131437487D03*
D13*
X193760000Y-144520000D03*
X181860000Y-142320000D03*
X88377300Y-133331000D03*
X76477300Y-131131000D03*
D17*
X145370806Y-121125916D03*
X134188255Y-116499843D03*
D25*
X213468390Y-141669325D03*
X201370743Y-141357981D03*
D13*
X296752956Y-94180527D03*
X284852956Y-91980527D03*
X294170000Y-133260000D03*
X282270000Y-131060000D03*
D26*
X203835749Y-123306329D03*
X191789290Y-122151854D03*
D10*
X115703702Y-134951830D03*
X104040728Y-131723048D03*
D27*
X251664809Y-134182596D03*
X239564905Y-133976834D03*
D28*
X105573042Y-114419665D03*
X93757070Y-111805701D03*
D29*
X257257861Y-94851983D03*
X245193085Y-93907924D03*
D30*
X232341245Y-137550434D03*
X220247155Y-137978214D03*
D13*
X289424480Y-114133180D03*
X277524480Y-111933180D03*
X81220000Y-152660000D03*
X69320000Y-150460000D03*
D31*
X277441510Y-94257763D03*
X265504927Y-92265782D03*
D28*
X184214042Y-124853665D03*
X172398070Y-122239701D03*
D13*
X83614400Y-113702000D03*
X71714400Y-111502000D03*
D32*
X248834710Y-156179556D03*
X236734996Y-156396200D03*
D33*
X128595643Y-158456174D03*
X117258457Y-154223183D03*
D10*
X103850702Y-154481830D03*
X92187728Y-151253048D03*
D14*
X215516843Y-161949970D03*
X203437431Y-161216614D03*
D25*
X218217746Y-100842752D03*
X206120099Y-100531408D03*
D34*
X179063759Y-104849480D03*
X167346211Y-101824737D03*
D35*
X239230642Y-126233335D03*
X238906267Y-124564569D03*
X232731556Y-125815747D03*
X233046391Y-127435431D03*
D36*
X68880000Y-99020000D03*
X68880000Y-95420000D03*
D37*
X258397576Y-124483977D03*
X258308604Y-122786307D03*
X252019855Y-123165955D03*
X252106210Y-124813693D03*
D38*
X78749500Y-123705000D03*
X78749500Y-122005000D03*
X72449500Y-122055000D03*
X72449500Y-123705000D03*
D39*
X215041095Y-111346769D03*
X214775156Y-109667696D03*
X208560541Y-110702618D03*
X208818658Y-112332304D03*
D40*
X158451047Y-133230123D03*
X158687642Y-131546667D03*
X152441994Y-130719390D03*
X152212358Y-132353333D03*
D41*
X119572931Y-126399617D03*
X119780109Y-124712288D03*
X113520975Y-123994139D03*
X113319891Y-125631840D03*
D42*
X151704730Y-127659006D03*
X152205754Y-124094036D03*
D43*
X192031975Y-129975329D03*
X191718215Y-126389029D03*
D44*
X179087778Y-134565827D03*
X179147107Y-132866862D03*
X172849199Y-132696965D03*
X172791615Y-134345960D03*
D45*
X122832004Y-141612159D03*
X123518916Y-138078301D03*
D46*
X133829938Y-109260431D03*
X134154313Y-107591665D03*
X127960522Y-106438650D03*
X127645687Y-108058335D03*
D47*
X246156226Y-166929927D03*
X245817300Y-165264055D03*
X239653743Y-166569069D03*
X239982700Y-168185945D03*
D48*
X212319787Y-127315864D03*
X211571305Y-123794532D03*
D45*
X127482004Y-103342159D03*
X128168916Y-99808301D03*
D38*
X83550000Y-143235000D03*
X83550000Y-141535000D03*
X77250000Y-141585000D03*
X77250000Y-143235000D03*
D49*
X245593288Y-101182753D03*
X245216986Y-97602475D03*
D50*
X272789355Y-104236592D03*
X272759686Y-102536851D03*
X266461518Y-102696794D03*
X266490314Y-104346543D03*
D51*
X154025822Y-167273537D03*
X154464552Y-163700371D03*
D52*
X221635185Y-145642744D03*
X220856003Y-142128078D03*
D53*
X166334438Y-109435615D03*
X166585562Y-105844385D03*
D54*
X187050623Y-109927359D03*
X186799499Y-106336129D03*
D55*
X132261305Y-123855469D03*
X133009787Y-120334137D03*
D56*
X91228215Y-158790971D03*
X91541975Y-155204671D03*
D36*
X68985000Y-158050000D03*
X68985000Y-154450000D03*
D57*
X114743895Y-106074608D03*
X114921593Y-104383921D03*
X108650879Y-103775118D03*
X108478407Y-105416079D03*
D58*
X226188916Y-104911699D03*
X225502004Y-101377841D03*
D59*
X99000000Y-107140000D03*
X99000000Y-103840000D03*
X103900000Y-103840000D03*
X103900000Y-107140000D03*
D60*
X153253249Y-112582304D03*
X153519188Y-110903231D03*
X147288929Y-109967081D03*
X147030812Y-111596769D03*
D41*
X160772931Y-172802553D03*
X160980109Y-171115224D03*
X154720975Y-170397075D03*
X154519891Y-172034776D03*
D56*
X103068215Y-139150971D03*
X103381975Y-135564671D03*
D61*
X194786568Y-113903197D03*
X194667982Y-112207338D03*
X188386816Y-112696682D03*
X188501914Y-114342662D03*
D58*
X231118916Y-123501699D03*
X230432004Y-119967841D03*
D62*
X173533034Y-114492662D03*
X173651620Y-112796803D03*
X167363478Y-112407216D03*
X167248380Y-114053197D03*
D63*
X138521661Y-130219043D03*
X138875111Y-128556192D03*
X132702385Y-127295256D03*
X132359331Y-128909200D03*
D64*
X88038586Y-99609726D03*
X88101414Y-96010274D03*
D38*
X289349500Y-143160000D03*
X289349500Y-141460000D03*
X283049500Y-141510000D03*
X283049500Y-143160000D03*
D65*
X122104542Y-167509078D03*
X122399745Y-165834905D03*
X116186774Y-164790162D03*
X115900255Y-166415095D03*
D66*
X202186890Y-148941750D03*
X201623726Y-145386072D03*
D67*
X260337835Y-138919776D03*
X260212197Y-135321970D03*
D56*
X161498215Y-148710971D03*
X161811975Y-145124671D03*
D68*
X107916986Y-100567526D03*
X108293288Y-96987248D03*
D69*
X204004552Y-168869630D03*
X203565822Y-165296464D03*
D59*
X178250000Y-118120000D03*
X178250000Y-114820000D03*
X183150000Y-114820000D03*
X183150000Y-118120000D03*
X257300000Y-106690000D03*
X257300000Y-103390000D03*
X262200000Y-103390000D03*
X262200000Y-106690000D03*
D36*
X76185000Y-138920000D03*
X76185000Y-135320000D03*
D38*
X76400000Y-103010000D03*
X76400000Y-101310000D03*
X70100000Y-101360000D03*
X70100000Y-103010000D03*
D63*
X147721661Y-151669043D03*
X148075111Y-150006192D03*
X141902385Y-148745256D03*
X141559331Y-150359200D03*
D69*
X261904552Y-159669630D03*
X261465822Y-156096464D03*
D36*
X284335000Y-157660000D03*
X284335000Y-154060000D03*
D70*
X115672813Y-161658313D03*
X116297947Y-158113005D03*
D38*
X291949500Y-104089473D03*
X291949500Y-102389473D03*
X285649500Y-102439473D03*
X285649500Y-104089473D03*
D55*
X141491305Y-145275469D03*
X142239787Y-141754137D03*
D36*
X277215000Y-119520000D03*
X277215000Y-115920000D03*
D59*
X113290000Y-146000000D03*
X113290000Y-142700000D03*
X118190000Y-142700000D03*
X118190000Y-146000000D03*
D35*
X234330642Y-108033335D03*
X234006267Y-106364569D03*
X227831556Y-107615747D03*
X228146391Y-109235431D03*
D71*
X267977746Y-143239549D03*
X267918417Y-141540584D03*
X261623999Y-141810421D03*
X261681583Y-143459416D03*
D72*
X237784364Y-163818848D03*
X237066640Y-160291122D03*
D36*
X284465000Y-99650000D03*
X284465000Y-96050000D03*
D59*
X251660000Y-146370000D03*
X251660000Y-143070000D03*
X256560000Y-143070000D03*
X256560000Y-146370000D03*
D51*
X112855822Y-120773537D03*
X113294552Y-117200371D03*
D73*
X199999536Y-133632225D03*
X199851371Y-131938694D03*
X193579702Y-132537585D03*
X193723509Y-134181306D03*
D74*
X98263931Y-163971306D03*
X98412096Y-162277775D03*
X92131711Y-161778504D03*
X91987904Y-163422225D03*
D75*
X250829239Y-120447533D03*
X250640829Y-116852467D03*
D76*
X95569137Y-104355568D03*
X95598806Y-102655827D03*
X89298893Y-102595869D03*
X89270096Y-104245617D03*
D44*
X100368417Y-124434416D03*
X100427746Y-122735451D03*
X94129838Y-122565554D03*
X94072254Y-124214549D03*
D38*
X291849500Y-162265000D03*
X291849500Y-160565000D03*
X285549500Y-160615000D03*
X285549500Y-162265000D03*
D77*
X253511476Y-105141079D03*
X253333778Y-103450392D03*
X247073516Y-104158647D03*
X247245988Y-105799608D03*
D78*
X220532890Y-130351504D03*
X220179440Y-128688653D03*
X214027506Y-130047404D03*
X214370560Y-131661347D03*
D74*
X168563931Y-153996306D03*
X168712096Y-152302775D03*
X162431711Y-151803504D03*
X162287904Y-153447225D03*
D79*
X240582429Y-141459440D03*
X239988257Y-137908812D03*
D80*
X265246418Y-99360162D03*
X265183590Y-95760710D03*
D81*
X171742197Y-129818031D03*
X171867835Y-126220225D03*
D39*
X210244188Y-152196769D03*
X209978249Y-150517696D03*
X203763634Y-151552618D03*
X204021751Y-153182304D03*
D59*
X182580000Y-162590000D03*
X182580000Y-159290000D03*
X187480000Y-159290000D03*
X187480000Y-162590000D03*
D36*
X71335000Y-118980000D03*
X71335000Y-115380000D03*
D38*
X76375000Y-162560000D03*
X76375000Y-160860000D03*
X70075000Y-160910000D03*
X70075000Y-162560000D03*
D82*
X146663726Y-106753928D03*
X147226890Y-103198250D03*
D83*
X248520122Y-144693443D03*
X248239541Y-143016757D03*
X242034194Y-144105870D03*
X242306523Y-145733243D03*
D38*
X188950000Y-154420000D03*
X188950000Y-152720000D03*
X182650000Y-152770000D03*
X182650000Y-154420000D03*
D36*
X181570000Y-149700000D03*
X181570000Y-146100000D03*
D66*
X207016890Y-108261750D03*
X206453726Y-104706072D03*
D38*
X284649500Y-124040000D03*
X284649500Y-122340000D03*
X278349500Y-122390000D03*
X278349500Y-124040000D03*
D84*
X229788811Y-148248067D03*
X229420864Y-146588364D03*
X223281021Y-148000748D03*
X223638146Y-149611636D03*
D85*
X269872385Y-163289776D03*
X269665207Y-161602447D03*
X263418260Y-162419852D03*
X263619345Y-164057553D03*
D81*
X93102197Y-119228031D03*
X93227835Y-115630225D03*
D74*
X110038931Y-144571306D03*
X110187096Y-142877775D03*
X103906711Y-142378504D03*
X103762904Y-144022225D03*
D46*
X129179938Y-147510431D03*
X129504313Y-145841665D03*
X123310522Y-144688650D03*
X122995687Y-146308335D03*
D85*
X211980109Y-172334776D03*
X211772931Y-170647447D03*
X205525984Y-171464852D03*
X205727069Y-173102553D03*
D36*
X282035000Y-138750000D03*
X282035000Y-135150000D03*
M02*
