M48
; DRILL file {KiCad 8.0.1} date 2024-06-23T14:06:14+0900
; FORMAT={-:-/ absolute / metric / decimal}
; #@! TF.CreationDate,2024-06-23T14:06:14+09:00
; #@! TF.GenerationSoftware,Kicad,Pcbnew,8.0.1
; #@! TF.FileFunction,Plated,1,2,PTH
FMAT,2
METRIC
; #@! TA.AperFunction,Plated,PTH,ViaDrill
T1C0.400
; #@! TA.AperFunction,Plated,PTH,ComponentDrill
T2C0.800
%
G90
G05
T1
X62.68Y-95.57
X64.8Y-148.25
X65.94Y-152.44
X65.996Y-113.9
X66.4Y-159.95
X66.49Y-97.35
X67.25Y-164.025
X68.8Y-121.3
X68.96Y-119.22
X70.475Y-140.2
X72.275Y-125.85
X72.78Y-137.93
X77.15Y-97.5
X77.25Y-147.775
X78.749Y-125.95
X79.31Y-99.29
X79.57Y-101.1
X81.4Y-162.56
X81.45Y-161.1
X82.859Y-122.075
X83.75Y-138.56
X84.075Y-163.925
X84.19Y-92.06
X85.12Y-96.56
X85.169Y-105.281
X85.26Y-95.3
X85.591Y-97.771
X85.925Y-110.85
X86.3Y-100.36
X86.425Y-162.85
X86.58Y-102.11
X86.742Y-141.535
X86.8Y-106.67
X87.39Y-157.8
X87.44Y-160.47
X87.622Y-143.25
X88.425Y-107.0
X88.439Y-112.51
X88.46Y-119.15
X88.5Y-124.55
X89.225Y-147.875
X89.25Y-111.875
X89.65Y-110.83
X90.325Y-120.955
X90.475Y-107.25
X94.91Y-101.04
X94.925Y-107.14
X95.45Y-146.925
X97.462Y-99.938
X98.975Y-166.525
X99.64Y-137.8
X100.0Y-142.425
X100.65Y-126.9
X100.93Y-90.76
X101.22Y-141.31
X103.57Y-122.675
X103.75Y-100.95
X105.05Y-100.02
X105.05Y-111.425
X105.51Y-97.07
X106.87Y-110.915
X107.55Y-125.8
X108.45Y-107.67
X108.7Y-123.0
X109.675Y-163.025
X110.025Y-147.12
X110.227Y-120.533
X112.23Y-160.65
X114.725Y-108.55
X115.675Y-144.4
X116.975Y-107.825
X118.05Y-104.8
X119.2Y-149.25
X119.6Y-141.342
X119.8Y-138.42
X120.637Y-111.44
X121.1Y-148.17
X122.125Y-169.925
X122.525Y-109.52
X122.6Y-129.025
X124.014Y-106.184
X124.25Y-100.31
X124.35Y-124.775
X125.0Y-102.86
X127.125Y-127.55
X127.65Y-110.425
X128.05Y-166.375
X129.5Y-125.3
X130.18Y-123.51
X132.273Y-150.827
X133.2Y-111.7
X134.15Y-144.975
X137.025Y-107.9
X137.15Y-146.85
X137.2Y-151.4
X138.43Y-144.89
X138.875Y-128.556
X139.42Y-138.8
X140.575Y-132.85
X141.578Y-116.325
X141.95Y-111.474
X142.442Y-109.218
X143.868Y-106.528
X148.07Y-129.35
X148.4Y-116.775
X148.4Y-133.265
X148.475Y-166.137
X148.57Y-125.87
X148.775Y-135.25
X149.025Y-171.325
X150.25Y-169.35
X150.943Y-154.55
X151.925Y-148.9
X156.475Y-114.65
X156.763Y-152.262
X157.51Y-150.77
X157.825Y-111.35
X157.87Y-147.3
X161.025Y-135.8
X162.25Y-114.126
X162.5Y-103.44
X162.58Y-112.03
X162.642Y-169.468
X163.51Y-174.66
X163.54Y-107.15
X163.85Y-131.525
X166.575Y-119.64
X167.54Y-129.249
X167.825Y-124.15
X167.978Y-132.447
X169.39Y-131.86
X170.29Y-165.35
X171.675Y-156.1
X175.25Y-116.75
X175.882Y-115.937
X176.225Y-112.797
X177.65Y-151.31
X177.7Y-149.17
X178.75Y-159.85
X179.05Y-137.175
X182.725Y-132.85
X183.7Y-171.95
X183.876Y-110.596
X184.214Y-122.06
X185.124Y-111.678
X185.675Y-157.3
X185.95Y-115.325
X186.0Y-118.2
X188.14Y-129.22
X188.575Y-115.34
X188.74Y-132.7
X189.725Y-136.15
X190.697Y-138.722
X191.375Y-162.575
X192.12Y-152.725
X193.0Y-151.553
X194.625Y-116.375
X197.775Y-166.35
X197.975Y-114.37
X198.127Y-111.95
X198.375Y-154.825
X199.0Y-148.59
X199.13Y-151.553
X199.979Y-173.509
X200.975Y-136.175
X202.16Y-169.89
X203.081Y-131.875
X203.25Y-119.232
X203.71Y-110.725
X203.85Y-113.333
X204.02Y-108.18
X207.075Y-135.275
X208.05Y-127.511
X208.725Y-132.725
X209.03Y-130.0
X210.244Y-154.494
X214.15Y-175.425
X214.275Y-148.88
X215.475Y-113.625
X217.225Y-170.258
X217.463Y-109.806
X217.83Y-145.51
X219.52Y-148.73
X221.175Y-151.4
X223.27Y-122.65
X223.68Y-108.01
X223.74Y-105.54
X223.8Y-132.15
X224.17Y-128.65
X225.725Y-110.85
X227.82Y-123.69
X228.343Y-126.582
X229.45Y-151.15
X231.1Y-129.495
X233.625Y-145.525
X234.44Y-163.86
X234.86Y-166.625
X235.2Y-169.475
X236.975Y-100.528
X237.7Y-142.52
X238.475Y-106.427
X238.819Y-144.106
X239.2Y-107.95
X239.75Y-147.3
X240.41Y-99.77
X240.85Y-128.7
X241.692Y-151.267
X242.75Y-124.046
X243.234Y-101.614
X243.87Y-103.84
X244.7Y-106.625
X246.775Y-125.224
X247.075Y-123.166
X248.6Y-140.4
X248.65Y-147.45
X250.0Y-168.825
X250.625Y-148.975
X251.22Y-130.35
X251.625Y-165.264
X253.65Y-107.95
X253.825Y-144.725
X254.625Y-101.33
X256.49Y-91.45
X256.72Y-137.35
X258.56Y-141.81
X258.575Y-162.925
X258.61Y-160.48
X259.025Y-166.035
X259.125Y-126.45
X260.92Y-101.43
X261.675Y-109.8
X261.7Y-145.925
X261.775Y-122.43
X262.6Y-99.31
X262.627Y-111.206
X265.325Y-106.1
X268.075Y-146.375
X271.6Y-141.575
X272.31Y-136.76
X272.75Y-107.025
X273.325Y-165.575
X273.55Y-124.41
X273.87Y-137.99
X274.175Y-148.875
X274.775Y-121.55
X276.51Y-137.99
X276.54Y-151.1
X276.763Y-102.481
X277.28Y-98.34
X278.855Y-153.935
X279.8Y-99.67
X280.56Y-140.17
X280.625Y-104.15
X280.825Y-145.15
X281.54Y-160.1
X282.05Y-102.1
X285.175Y-126.325
X285.625Y-106.375
X289.375Y-145.825
X289.42Y-128.11
X291.86Y-128.67
X291.925Y-164.9
X292.85Y-141.475
X294.125Y-106.575
X294.925Y-127.48
X296.51Y-147.88
T2
X61.286Y-89.912
X61.286Y-105.152
X63.826Y-89.912
X63.826Y-105.152
X66.366Y-89.912
X66.366Y-105.152
X68.906Y-105.152
X71.446Y-105.152
X73.986Y-105.152
X76.526Y-89.912
X76.526Y-105.152
X79.066Y-89.912
X79.066Y-105.152
X81.606Y-89.912
X81.606Y-105.152
X81.816Y-97.532
X81.816Y-100.072
X81.816Y-102.612
M30
