G04 #@! TF.GenerationSoftware,KiCad,Pcbnew,8.0.1*
G04 #@! TF.CreationDate,2024-06-23T14:06:00+09:00*
G04 #@! TF.ProjectId,noraneko42gr,6e6f7261-6e65-46b6-9f34-3267722e6b69,rev?*
G04 #@! TF.SameCoordinates,Original*
G04 #@! TF.FileFunction,Profile,NP*
%FSLAX46Y46*%
G04 Gerber Fmt 4.6, Leading zero omitted, Abs format (unit mm)*
G04 Created by KiCad (PCBNEW 8.0.1) date 2024-06-23 14:06:00*
%MOMM*%
%LPD*%
G01*
G04 APERTURE LIST*
G04 #@! TA.AperFunction,Profile*
%ADD10C,0.199999*%
G04 #@! TD*
G04 #@! TA.AperFunction,Profile*
%ADD11C,0.150000*%
G04 #@! TD*
%ADD12C,0.199999*%
G04 #@! TA.AperFunction,Profile*
%ADD13C,0.100000*%
G04 #@! TD*
G04 APERTURE END LIST*
D10*
X161893636Y-97011089D02*
X161922952Y-97017787D01*
D11*
X182960000Y-101960000D02*
G75*
G02*
X180760000Y-101960000I-1100000J0D01*
G01*
X180760000Y-101960000D02*
G75*
G02*
X182960000Y-101960000I1100000J0D01*
G01*
D10*
X302675255Y-108142025D02*
X302689902Y-108110754D01*
X302193446Y-108566675D02*
X302226872Y-108554368D01*
X161082994Y-95455434D02*
X161077387Y-95425239D01*
X58988305Y-145899109D02*
X58957182Y-145915280D01*
X205698686Y-94104644D02*
X256362016Y-87442810D01*
X299670616Y-166870330D02*
X299842316Y-166847089D01*
X301221406Y-145292667D02*
X301230470Y-145333314D01*
X302125672Y-165420042D02*
X302221545Y-165276321D01*
X59688336Y-108719489D02*
X59555937Y-108678874D01*
X200218411Y-95368355D02*
X200211020Y-95398088D01*
X200450008Y-94984341D02*
X200408270Y-95027131D01*
X301275561Y-145447939D02*
X301296181Y-145483209D01*
X60763412Y-166652357D02*
X60925753Y-166708662D01*
X301409353Y-108837907D02*
X301393880Y-108851378D01*
X161286090Y-96494286D02*
X161304310Y-96534608D01*
X59837883Y-108794030D02*
X59803285Y-108771317D01*
X58553622Y-146411949D02*
X58544196Y-146445589D01*
X199299650Y-97031879D02*
X199329256Y-97026636D01*
X301585435Y-145705317D02*
X301717997Y-145746134D01*
X302749349Y-163655878D02*
X302756502Y-163482138D01*
X61774684Y-87086136D02*
X61601377Y-87100821D01*
X59155297Y-145837611D02*
X59289434Y-145802759D01*
X299853609Y-87142620D02*
X299681913Y-87119296D01*
X59049263Y-165257563D02*
X59145093Y-165401305D01*
X301990354Y-108622050D02*
X301856774Y-108658854D01*
X301911918Y-165693572D02*
X302022424Y-165559226D01*
X61949288Y-87080154D02*
X61774684Y-87086136D01*
X58536145Y-107926380D02*
X58544196Y-107960522D01*
X161324287Y-96574019D02*
X161345984Y-96612465D01*
X302703286Y-108078838D02*
X302715377Y-108046312D01*
X155727845Y-94119817D02*
X104920919Y-87431166D01*
X161269665Y-96453111D02*
X161286090Y-96494286D01*
X58515868Y-90489643D02*
X58517470Y-90664367D01*
X199587349Y-96947482D02*
X199614863Y-96935182D01*
X300507195Y-166670965D02*
X300666457Y-166606778D01*
X58576487Y-146346318D02*
X58564395Y-146378846D01*
X301425365Y-108825016D02*
X301409353Y-108837907D01*
X58717410Y-146110975D02*
X58695757Y-146137645D01*
X60297294Y-87516279D02*
X60149037Y-87603544D01*
X302485332Y-146055490D02*
X302432861Y-146010743D01*
X301296181Y-145483209D02*
X301319406Y-145516761D01*
X58897432Y-145951214D02*
X58868860Y-145970905D01*
X302533849Y-146104222D02*
X302485332Y-146055490D01*
X59052909Y-108535317D02*
X59086335Y-108547624D01*
X301212907Y-145208613D02*
X301215514Y-145251050D01*
X103449155Y-87264103D02*
X102711446Y-87200358D01*
X302124482Y-108587199D02*
X301990354Y-108622050D01*
X302463767Y-164820953D02*
X302528991Y-164662099D01*
X200746742Y-94789053D02*
X200692508Y-94813802D01*
X58595863Y-89803049D02*
X58563136Y-89972252D01*
X59915180Y-145544814D02*
X59928949Y-145529714D01*
X58524275Y-107856727D02*
X58529495Y-107891769D01*
X60449523Y-87436567D02*
X60297294Y-87516279D01*
X59928949Y-145529714D02*
X59942123Y-145514108D01*
X302709233Y-163999390D02*
X302733554Y-163828396D01*
X200639990Y-94841800D02*
X200589334Y-94872950D01*
X301281237Y-108995652D02*
X301271936Y-109013899D01*
X302733554Y-163828396D02*
X302749349Y-163655878D01*
X300822346Y-166534781D02*
X300974564Y-166455102D01*
X160303991Y-94721356D02*
X160273798Y-94717328D01*
X60058619Y-145232055D02*
X60060340Y-145210899D01*
X301325105Y-108926786D02*
X301313166Y-108943347D01*
X58538817Y-90143285D02*
X58523022Y-90315849D01*
X60037975Y-145334356D02*
X60043662Y-145314422D01*
X161612512Y-96905692D02*
X161639453Y-96919313D01*
X60764708Y-87300317D02*
X60605427Y-87364538D01*
X199614863Y-96935182D02*
X199642097Y-96922191D01*
X302352901Y-108492333D02*
X302382351Y-108473798D01*
X199531534Y-96969996D02*
X199559569Y-96959087D01*
X99752676Y-87077670D02*
X99011911Y-87080154D01*
X199832328Y-96758347D02*
X199860539Y-96724353D01*
X302285821Y-145918163D02*
X302253913Y-145903236D01*
X301470658Y-145653492D02*
X301507141Y-145673585D01*
X301393880Y-108851378D02*
X301378961Y-108865411D01*
X301717997Y-145746134D02*
X301851081Y-145784964D01*
X61090876Y-166756903D02*
X61258486Y-166796951D01*
X301337668Y-108910693D02*
X301325105Y-108926786D01*
X60147784Y-166349087D02*
X60296040Y-166436354D01*
X153607847Y-179532294D02*
X154380324Y-179594971D01*
X99011911Y-87080154D02*
X61949288Y-87080154D01*
X59289434Y-145802759D02*
X59423009Y-145765954D01*
D11*
X185970000Y-176720000D02*
G75*
G02*
X183770000Y-176720000I-1100000J0D01*
G01*
X183770000Y-176720000D02*
G75*
G02*
X185970000Y-176720000I1100000J0D01*
G01*
D10*
X302465321Y-108411500D02*
X302491093Y-108388620D01*
X302432861Y-146010743D02*
X302376654Y-145970264D01*
X302221237Y-145889588D02*
X302187819Y-145877254D01*
X301417364Y-87819242D02*
X301277965Y-87717225D01*
D11*
X299984720Y-90720000D02*
G75*
G02*
X297784720Y-90720000I-1100000J0D01*
G01*
X297784720Y-90720000D02*
G75*
G02*
X299984720Y-90720000I1100000J0D01*
G01*
D10*
X59988574Y-145447005D02*
X59998556Y-145429152D01*
X302578191Y-146156655D02*
X302533849Y-146104222D01*
X154380324Y-179594971D02*
X155154091Y-179638978D01*
X162011871Y-97033571D02*
X162041791Y-97037383D01*
X60031536Y-145353990D02*
X60037975Y-145334356D01*
X200026706Y-96414061D02*
X200039487Y-96371303D01*
X301531988Y-108760900D02*
X301513033Y-108769917D01*
X201038499Y-94717414D02*
X200977892Y-94724471D01*
X300518460Y-87319093D02*
X300356129Y-87262754D01*
D11*
X104330000Y-90470000D02*
G75*
G02*
X102130000Y-90470000I-1100000J0D01*
G01*
X102130000Y-90470000D02*
G75*
G02*
X104330000Y-90470000I1100000J0D01*
G01*
D10*
X300179730Y-166775405D02*
X300344854Y-166727217D01*
X161577011Y-96878479D02*
X161612512Y-96905692D01*
X200408270Y-95027131D02*
X200369129Y-95072588D01*
X59803285Y-108771317D02*
X59766752Y-108751222D01*
X104185706Y-87341045D02*
X103449155Y-87264103D01*
X160589386Y-94810783D02*
X160535152Y-94786035D01*
X59120474Y-145847211D02*
X59086335Y-145858197D01*
X301805223Y-88167765D02*
X301681288Y-88044640D01*
X302022424Y-165559226D02*
X302125672Y-165420042D01*
X58520513Y-146584830D02*
X58518235Y-146620633D01*
X161046038Y-95306782D02*
X161035968Y-95277830D01*
X155154091Y-179638978D02*
X155928809Y-179664285D01*
X58957182Y-108490641D02*
X58988305Y-108506791D01*
X301513033Y-108769917D02*
X301494532Y-108779627D01*
X102711446Y-87200358D02*
X101972762Y-87149825D01*
X301723790Y-108697578D02*
X301591447Y-108738189D01*
X60061226Y-109971495D02*
X60061226Y-141663203D01*
X199417112Y-97006614D02*
X199446035Y-96998517D01*
X58518235Y-146620633D02*
X58517470Y-146656764D01*
X101233284Y-87112522D02*
X100493195Y-87088465D01*
X302382351Y-108473798D02*
X302410922Y-108454125D01*
X58589871Y-108091702D02*
X58620404Y-108153564D01*
X58517470Y-107249472D02*
X58517470Y-107749354D01*
X59998556Y-145429152D02*
X60007857Y-145410905D01*
X58763903Y-146060345D02*
X58740135Y-146085197D01*
X199995598Y-96497258D02*
X200012064Y-96456064D01*
X58589871Y-146314399D02*
X58576487Y-146346318D01*
D11*
X299984720Y-162290000D02*
G75*
G02*
X297784720Y-162290000I-1100000J0D01*
G01*
X297784720Y-162290000D02*
G75*
G02*
X299984720Y-162290000I1100000J0D01*
G01*
D10*
X59998556Y-108976956D02*
X59977926Y-108941662D01*
X301507141Y-145673585D02*
X301545438Y-145690910D01*
X302491093Y-108388620D02*
X302515877Y-108364742D01*
X199802586Y-96791094D02*
X199832328Y-96758347D01*
X59864349Y-166152429D02*
X60003789Y-166254402D01*
X161982082Y-97029032D02*
X162011871Y-97033571D01*
X60061226Y-141663203D02*
X60061226Y-145189555D01*
X59360147Y-88277918D02*
X59249700Y-88412266D01*
X161345984Y-96612465D02*
X161369364Y-96649887D01*
X260790100Y-87101051D02*
X260049999Y-87124982D01*
X302766744Y-90508692D02*
X302759602Y-90334899D01*
X199240036Y-97040204D02*
X199269906Y-97036403D01*
X204566452Y-179689214D02*
X205341780Y-179682634D01*
X301242593Y-145372841D02*
X301257661Y-145411100D01*
X152836999Y-179450976D02*
X153607847Y-179532294D01*
X160982674Y-95167952D02*
X160949166Y-95117457D01*
X58620404Y-108153564D02*
X58655773Y-108212565D01*
X302584022Y-108287473D02*
X302604576Y-108259955D01*
X58740135Y-108320850D02*
X58788688Y-108369570D01*
X302259559Y-108540745D02*
X302291477Y-108525841D01*
X59555937Y-108678874D02*
X59422875Y-108640114D01*
X302226872Y-108554368D02*
X302259559Y-108540745D01*
X58960915Y-165109580D02*
X59049263Y-165257563D01*
X300985777Y-87535198D02*
X300833580Y-87455443D01*
X161806826Y-96986748D02*
X161835560Y-96995566D01*
X200369129Y-95072588D02*
X200332731Y-95120617D01*
X199503259Y-96980206D02*
X199531534Y-96969996D01*
X199559569Y-96959087D02*
X199587349Y-96947482D01*
X258571770Y-87212492D02*
X257833997Y-87276062D01*
X201038499Y-94717414D02*
X205698686Y-94104644D01*
X199210054Y-97043280D02*
X199240036Y-97040204D01*
X58521612Y-163636836D02*
X58537406Y-163809371D01*
X59248290Y-165540506D02*
X59358738Y-165674862D01*
X59422875Y-108640114D02*
X59289284Y-108603205D01*
X301851081Y-145784964D02*
X301984700Y-145821809D01*
X59476321Y-165804072D02*
X59600320Y-165927135D01*
X199642097Y-96922191D02*
X199669038Y-96908511D01*
X302709421Y-146397752D02*
X302683973Y-146333339D01*
X200204522Y-95428061D02*
X200198915Y-95458253D01*
X301545438Y-145690910D02*
X301585435Y-145705317D01*
X59900828Y-145559389D02*
X59915180Y-145544814D01*
X200494196Y-94944317D02*
X200450008Y-94984341D01*
X301681288Y-88044640D02*
X301551903Y-87928423D01*
X59837883Y-145612077D02*
X59854422Y-145599785D01*
X58637498Y-146222647D02*
X58620404Y-146252528D01*
X58544196Y-146445589D02*
X58536145Y-146479733D01*
X59766752Y-145654884D02*
X59785253Y-145645174D01*
X300833580Y-87455443D02*
X300677709Y-87383366D01*
X60925753Y-166708662D02*
X61090876Y-166756903D01*
X59785253Y-145645174D02*
X59803285Y-145634790D01*
X155928809Y-179664285D02*
X156704137Y-179670865D01*
X302187819Y-145877254D02*
X302153686Y-145866269D01*
X199269906Y-97036403D02*
X199299650Y-97031879D01*
X302755494Y-107875780D02*
X302759257Y-107840340D01*
X302253913Y-145903236D02*
X302221237Y-145889588D01*
X199977344Y-96537587D02*
X199995598Y-96497258D01*
X199860539Y-96724353D02*
X199887182Y-96689166D01*
X58564395Y-146378846D02*
X58553622Y-146411949D01*
X161035968Y-95277830D02*
X161025004Y-95249174D01*
X58523022Y-90315849D02*
X58515868Y-90489643D01*
X200977892Y-94724471D02*
X200918266Y-94735261D01*
X302735575Y-107979574D02*
X302743626Y-107945433D01*
X200299224Y-95171121D02*
X200268754Y-95224004D01*
X301213273Y-141682246D02*
X301212907Y-145208613D01*
X100493195Y-87088465D02*
X99752676Y-87077670D01*
X161750027Y-96967020D02*
X161778311Y-96977231D01*
X58636884Y-89635980D02*
X58595863Y-89803049D01*
X302743626Y-107945433D02*
X302750275Y-107910823D01*
X301436101Y-145630782D02*
X301470658Y-145653492D01*
X58620404Y-146252528D02*
X58604519Y-146283123D01*
X302539439Y-89328491D02*
X302474266Y-89169622D01*
X302755523Y-146639366D02*
X302753249Y-146603593D01*
X161013147Y-95220832D02*
X160998299Y-95194100D01*
X301248257Y-109070815D02*
X301241819Y-109090450D01*
X61258486Y-166796951D02*
X61428286Y-166828677D01*
X58880167Y-164957661D02*
X58960915Y-165109580D01*
X200859767Y-94749685D02*
X200802544Y-94767648D01*
X59977926Y-108941662D02*
X59954686Y-108908092D01*
X302539645Y-108339901D02*
X302562369Y-108314133D01*
X59870435Y-108819214D02*
X59837883Y-108794030D01*
X302410922Y-108454125D02*
X302438589Y-108433347D01*
X199446035Y-96998517D02*
X199474754Y-96989714D01*
X301263330Y-109032521D02*
X301255432Y-109051499D01*
X301313166Y-108943347D02*
X301301866Y-108960357D01*
X58807132Y-164802106D02*
X58880167Y-164957661D01*
X301271936Y-109013899D02*
X301263330Y-109032521D01*
X301218568Y-109235251D02*
X301218202Y-109990187D01*
X301218202Y-109990187D02*
X301213273Y-141682246D01*
X58517470Y-146656764D02*
X58516060Y-163288417D01*
X302528991Y-164662099D02*
X302586265Y-164500214D01*
X58516060Y-163288417D02*
X58514458Y-163463083D01*
X302291477Y-108525841D02*
X302322601Y-108509692D01*
X302474266Y-89169622D02*
X302401262Y-89014088D01*
X302750275Y-107910823D02*
X302755494Y-107875780D01*
X302653473Y-146271496D02*
X302618139Y-146212507D01*
X60448260Y-166516074D02*
X60604149Y-166588118D01*
X301277965Y-87717225D02*
X301134004Y-87622501D01*
X160787699Y-94941234D02*
X160741208Y-94904093D01*
X61599983Y-166851951D02*
X61773279Y-166866646D01*
X199912221Y-96652842D02*
X199935619Y-96615434D01*
X59820833Y-145623752D02*
X59837883Y-145612077D01*
X58957182Y-145915280D02*
X58926882Y-145932661D01*
X59020223Y-145884181D02*
X58988305Y-145899109D01*
X302159307Y-108577630D02*
X302193446Y-108566675D01*
X301350841Y-108895087D02*
X301337668Y-108910693D01*
X301551903Y-87928423D02*
X301417364Y-87819242D01*
X104920919Y-87431166D02*
X104185706Y-87341045D01*
X161070888Y-95395260D02*
X161063497Y-95365514D01*
X59865628Y-87800225D02*
X59731069Y-87909386D01*
X59050674Y-88695176D02*
X58962327Y-88843138D01*
X302737637Y-146498575D02*
X302729596Y-146464454D01*
X301223718Y-109171803D02*
X301221175Y-109192752D01*
X59052909Y-145870532D02*
X59020223Y-145884181D01*
X161449228Y-96755456D02*
X161478966Y-96788224D01*
X58814460Y-146013561D02*
X58788688Y-146036454D01*
X161922952Y-97017787D02*
X161952439Y-97023769D01*
X302756288Y-146675463D02*
X302755523Y-146639366D01*
X199771349Y-96822538D02*
X199802586Y-96791094D01*
X299681913Y-87119296D02*
X299508617Y-87104546D01*
X301221175Y-109192752D02*
X301219454Y-109213907D01*
X160422122Y-94746643D02*
X160363621Y-94732189D01*
X280450680Y-166890979D02*
X299322709Y-166890979D01*
X199887182Y-96689166D02*
X199912221Y-96652842D01*
X160535152Y-94786035D02*
X160479348Y-94764624D01*
X300666457Y-166606778D02*
X300822346Y-166534781D01*
X60149037Y-87603544D02*
X60005049Y-87698235D01*
X59020223Y-108521694D02*
X59052909Y-108535317D01*
X60016464Y-145392284D02*
X60024361Y-145373306D01*
X58536145Y-146479733D02*
X58529495Y-146514344D01*
X302438589Y-108433347D02*
X302465321Y-108411500D01*
X59942123Y-145514108D02*
X59954686Y-145498016D01*
X302635473Y-164335600D02*
X302676501Y-164168558D01*
X101972762Y-87149825D02*
X101233284Y-87112522D01*
X59600320Y-165927135D02*
X59729761Y-166043297D01*
X301922800Y-88296972D02*
X301805223Y-88167765D01*
X60052727Y-145273727D02*
X60056077Y-145253004D01*
X161778311Y-96977231D02*
X161806826Y-96986748D01*
X61601377Y-87100821D02*
X61429665Y-87124081D01*
X59977926Y-145464446D02*
X59988574Y-145447005D01*
X161835560Y-96995566D02*
X161864501Y-97003681D01*
X59766752Y-108751222D02*
X59728399Y-108733897D01*
X200540687Y-94907154D02*
X200494196Y-94944317D01*
X161864501Y-97003681D02*
X161893636Y-97011089D01*
X206890265Y-179613320D02*
X207662742Y-179550643D01*
X301476501Y-108790010D02*
X301458954Y-108801049D01*
X302759602Y-90334899D02*
X302743825Y-90162336D01*
X59688336Y-145686618D02*
X59708574Y-145679788D01*
X58524275Y-146549388D02*
X58520513Y-146584830D01*
X262271394Y-87092855D02*
X261530624Y-87090340D01*
X261530624Y-87090340D02*
X260790100Y-87101051D01*
X60043662Y-145314422D02*
X60048584Y-145294206D01*
X302316932Y-145934333D02*
X302285821Y-145918163D01*
X200235869Y-95309689D02*
X200226693Y-95338882D01*
X59289284Y-108603205D02*
X59155297Y-108568148D01*
X200918266Y-94735261D02*
X200859767Y-94749685D01*
X59954686Y-145498016D02*
X59966625Y-145481456D01*
X200211020Y-95398088D02*
X200204522Y-95428061D01*
X59146503Y-88551452D02*
X59050674Y-88695176D01*
X61428286Y-166828677D02*
X61599983Y-166851951D01*
X60604149Y-166588118D02*
X60763412Y-166652357D01*
X302596667Y-89490394D02*
X302539439Y-89328491D01*
X302726149Y-108013213D02*
X302735575Y-107979574D01*
X262271394Y-87092855D02*
X299334016Y-87098499D01*
X161231530Y-96325026D02*
X161242348Y-96368425D01*
X301494532Y-108779627D02*
X301476501Y-108790010D01*
X299842316Y-166847089D02*
X300012119Y-166815405D01*
X161063497Y-95365514D02*
X161055214Y-95336015D01*
X58594451Y-164149583D02*
X58635471Y-164316655D01*
X302604576Y-108259955D02*
X302624004Y-108231616D01*
X302715377Y-108046312D02*
X302726149Y-108013213D01*
X300344854Y-166727217D02*
X300507195Y-166670965D01*
X59555987Y-145727228D02*
X59688336Y-145686618D01*
X302744278Y-146533162D02*
X302737637Y-146498575D01*
X302642278Y-108202492D02*
X302659371Y-108172616D01*
X58988305Y-108506791D02*
X59020223Y-108521694D01*
X301984700Y-145821809D02*
X302118867Y-145856669D01*
X301373221Y-145578108D02*
X301403584Y-145605604D01*
X301856774Y-108658854D02*
X301723790Y-108697578D01*
X60605427Y-87364538D02*
X60449523Y-87436567D01*
X59086335Y-108547624D02*
X59120474Y-108558580D01*
X59145093Y-165401305D02*
X59248290Y-165540506D01*
X59966625Y-145481456D02*
X59977926Y-145464446D01*
X302749491Y-146568179D02*
X302744278Y-146533162D01*
X199474754Y-96989714D02*
X199503259Y-96980206D01*
X301134004Y-87622501D02*
X300985777Y-87535198D01*
X59731069Y-87909386D02*
X59601671Y-88025590D01*
X199387999Y-97014001D02*
X199417112Y-97006614D01*
X59747796Y-145663903D02*
X59766752Y-145654884D01*
X160873625Y-95024005D02*
X160831887Y-94981237D01*
X301540833Y-166062090D02*
X301670271Y-165945896D01*
X162071832Y-97040463D02*
X180640596Y-98496720D01*
X302676501Y-164168558D02*
X302709233Y-163999390D01*
X58684669Y-164481301D02*
X58741928Y-164643219D01*
X161304310Y-96534608D02*
X161324287Y-96574019D01*
X301319406Y-145516761D02*
X301345123Y-145548443D01*
X59249700Y-88412266D02*
X59146503Y-88551452D01*
X200332731Y-95120617D02*
X200299224Y-95171121D01*
X301230470Y-145333314D02*
X301242593Y-145372841D01*
X60005049Y-87698235D02*
X59865628Y-87800225D01*
X302322601Y-108509692D02*
X302352901Y-108492333D01*
X161639453Y-96919313D02*
X161666688Y-96932261D01*
X58563136Y-89972252D02*
X58538817Y-90143285D01*
X302136414Y-88570504D02*
X302033235Y-88431319D01*
X58517470Y-90664367D02*
X58517470Y-107249472D01*
X160692561Y-94869907D02*
X160641905Y-94838772D01*
X302765138Y-90683414D02*
X302766744Y-90508692D01*
X301241819Y-109090450D02*
X301236132Y-109110385D01*
D12*
X80819909Y-166872630D02*
X81040926Y-166872730D01*
X81258267Y-166874602D01*
X81485392Y-166880604D01*
X81735762Y-166893095D01*
X82022839Y-166914432D01*
X82360085Y-166946974D01*
X82760960Y-166993078D01*
X83238926Y-167055104D01*
X83807444Y-167135408D01*
X84479976Y-167236349D01*
X85269983Y-167360284D01*
X86190927Y-167509574D01*
X87256269Y-167686574D01*
X88479470Y-167893643D01*
X89873991Y-168133140D01*
X91453295Y-168407423D01*
X93230842Y-168718849D01*
X95220094Y-169069777D01*
X97434512Y-169462564D01*
X99887557Y-169899569D01*
X102592692Y-170383151D01*
X105563377Y-170915666D01*
X108813074Y-171499474D01*
X112355243Y-172136932D01*
X116203348Y-172830398D01*
X120370848Y-173582231D01*
X124871205Y-174394788D01*
X129717881Y-175270428D01*
X134924337Y-176211508D01*
X140504034Y-177220388D01*
X146470434Y-178299424D01*
X152836999Y-179450976D01*
D10*
X59728399Y-108733897D02*
X59688336Y-108719489D01*
X160479348Y-94764624D02*
X160422122Y-94746643D01*
X301441904Y-108812723D02*
X301425365Y-108825016D01*
X161478966Y-96788224D02*
X161510201Y-96819689D01*
X199358710Y-97020676D02*
X199387999Y-97014001D01*
X60061226Y-109216552D02*
X60061226Y-109971495D01*
X58788688Y-108369570D02*
X58841193Y-108414296D01*
X200256899Y-95252230D02*
X200245937Y-95280799D01*
X161666688Y-96932261D02*
X161694203Y-96944531D01*
X200589334Y-94872950D02*
X200540687Y-94907154D01*
X59120474Y-108558580D02*
X59155297Y-108568148D01*
X61947880Y-166872630D02*
X80819909Y-166872630D01*
X60052727Y-109132381D02*
X60043662Y-109091686D01*
X60056077Y-145253004D02*
X60058619Y-145232055D01*
X301257661Y-145411100D02*
X301275561Y-145447939D01*
X58517470Y-107749354D02*
X58518235Y-107785484D01*
X161510201Y-96819689D02*
X161542895Y-96849792D01*
X61773279Y-166866646D02*
X61947880Y-166872630D01*
X199738654Y-96852626D02*
X199771349Y-96822538D01*
X61259845Y-87155788D02*
X61092214Y-87195815D01*
X58604519Y-146283123D02*
X58589871Y-146314399D01*
X302756502Y-163482138D02*
X302754899Y-163307475D01*
X301231210Y-109130601D02*
X301227067Y-109151080D01*
X300012119Y-166815405D02*
X300179730Y-166775405D01*
X59358738Y-165674862D02*
X59476321Y-165804072D01*
X301571210Y-108745017D02*
X301551386Y-108752594D01*
X58686081Y-89471343D02*
X58636884Y-89635980D01*
X301378961Y-108865411D02*
X301364610Y-108879987D01*
X302221545Y-165276321D02*
X302309929Y-165128366D01*
X161694203Y-96944531D02*
X161721987Y-96956119D01*
X58741928Y-164643219D02*
X58807132Y-164802106D01*
X199210054Y-97043280D02*
X180640947Y-98496720D01*
X299508617Y-87104546D02*
X299334016Y-87098499D01*
X58564395Y-108027260D02*
X58589871Y-108091702D01*
X161255072Y-96411138D02*
X161269665Y-96453111D01*
X160912767Y-95069443D02*
X160873625Y-95024005D01*
X302743825Y-90162336D02*
X302719528Y-89991303D01*
X60016464Y-109013825D02*
X59998556Y-108976956D01*
X257097353Y-87352836D02*
X256362016Y-87442810D01*
X161231530Y-96325026D02*
X161082994Y-95455434D01*
X161721987Y-96956119D02*
X161750027Y-96967020D01*
X58695757Y-108268421D02*
X58740135Y-108320850D01*
X302689902Y-108110754D02*
X302703286Y-108078838D01*
X58788688Y-146036454D02*
X58763903Y-146060345D01*
X302618139Y-146212507D02*
X302578191Y-146156655D01*
X59870435Y-145586893D02*
X59885909Y-145573422D01*
X59928949Y-108876394D02*
X59900828Y-108846718D01*
X59477730Y-88148710D02*
X59360147Y-88277918D01*
X59803285Y-145634790D02*
X59820833Y-145623752D01*
X302320542Y-88862190D02*
X302232221Y-88714228D01*
X59708574Y-145679788D02*
X59728399Y-145672210D01*
X59086335Y-145858197D02*
X59052909Y-145870532D01*
X301406248Y-166171234D02*
X301540833Y-166062090D01*
X300356129Y-87262754D02*
X300191013Y-87214477D01*
X302756288Y-146675463D02*
X302754899Y-163307475D01*
X58655773Y-146193516D02*
X58637498Y-146222647D01*
X60024361Y-145373306D02*
X60031536Y-145353990D01*
X302124482Y-108587199D02*
X302159307Y-108577630D01*
X59423009Y-145765954D02*
X59555987Y-145727228D01*
X302232221Y-88714228D02*
X302136414Y-88570504D01*
X200245937Y-95280799D02*
X200235869Y-95309689D01*
X301551386Y-108752594D02*
X301531988Y-108760900D01*
X302759257Y-107840340D02*
X302761534Y-107804538D01*
X61429665Y-87124081D02*
X61259845Y-87155788D01*
X160641905Y-94838772D02*
X160589386Y-94810783D01*
X160243379Y-94714240D02*
X155727845Y-94119817D01*
X58514458Y-163463083D02*
X58521612Y-163636836D01*
X161077387Y-95425239D02*
X161070888Y-95395260D01*
X301458954Y-108801049D02*
X301441904Y-108812723D01*
D11*
X64530000Y-109820000D02*
G75*
G02*
X62330000Y-109820000I-1100000J0D01*
G01*
X62330000Y-109820000D02*
G75*
G02*
X64530000Y-109820000I1100000J0D01*
G01*
D10*
X60048584Y-145294206D02*
X60052727Y-145273727D01*
X161952439Y-97023769D02*
X161982082Y-97029032D01*
X301215514Y-145251050D02*
X301221406Y-145292667D01*
X200692508Y-94813802D02*
X200639990Y-94841800D01*
X58841193Y-108414296D02*
X58897432Y-108454748D01*
X257833997Y-87276062D02*
X257097353Y-87352836D01*
X58520513Y-107821286D02*
X58524275Y-107856727D01*
X302033235Y-88431319D02*
X301922800Y-88296972D01*
X160741208Y-94904093D02*
X160692561Y-94869907D01*
X301255432Y-109051499D02*
X301248257Y-109070815D01*
X260049999Y-87124982D02*
X259310496Y-87162131D01*
X301301866Y-108960357D02*
X301291218Y-108977799D01*
X206116498Y-179657327D02*
X206890265Y-179613320D01*
X301591447Y-108738189D02*
X301571210Y-108745017D01*
X58962327Y-88843138D02*
X58881579Y-88995036D01*
X300677709Y-87383366D02*
X300518460Y-87319093D01*
X302753249Y-146603593D02*
X302749491Y-146568179D01*
X200012064Y-96456064D02*
X200026706Y-96414061D01*
X301236132Y-109110385D02*
X301231210Y-109130601D01*
X299497315Y-166885002D02*
X299670616Y-166870330D01*
X302390708Y-164976476D02*
X302463767Y-164820953D01*
X58808544Y-89150570D02*
X58743340Y-89309439D01*
X60060340Y-145210899D02*
X60061226Y-145189555D01*
X161025004Y-95249174D02*
X161013147Y-95220832D01*
X59601671Y-88025590D02*
X59477730Y-88148710D01*
X59954686Y-108908092D02*
X59928949Y-108876394D01*
X161394389Y-96686231D02*
X161421023Y-96721439D01*
X161242348Y-96368425D02*
X161255072Y-96411138D01*
X59155297Y-145837611D02*
X59120474Y-145847211D01*
X160998299Y-95194100D02*
X160982674Y-95167952D01*
X61092214Y-87195815D02*
X60927069Y-87244034D01*
X60058619Y-109174052D02*
X60052727Y-109132381D01*
X200802544Y-94767648D02*
X200746742Y-94789053D01*
X60007857Y-145410905D02*
X60016464Y-145392284D01*
X199957338Y-96576997D02*
X199977344Y-96537587D01*
X200050370Y-96327845D02*
X200198915Y-95458253D01*
X301345123Y-145548443D02*
X301373221Y-145578108D01*
X160949166Y-95117457D02*
X160912767Y-95069443D01*
X302153686Y-145866269D02*
X302118867Y-145856669D01*
X259310496Y-87162131D02*
X258571770Y-87212492D01*
X200226693Y-95338882D02*
X200218411Y-95368355D01*
X205341780Y-179682634D02*
X206116498Y-179657327D01*
X59729761Y-166043297D02*
X59864349Y-166152429D01*
X58740135Y-146085197D02*
X58717410Y-146110975D01*
X156704137Y-179670865D02*
X204566452Y-179689214D01*
X161369364Y-96649887D02*
X161394389Y-96686231D01*
X301403584Y-145605604D02*
X301436101Y-145630782D01*
X58537406Y-163809371D02*
X58561724Y-163980388D01*
X200268754Y-95224004D02*
X200256899Y-95252230D01*
X60043662Y-109091686D02*
X60031536Y-109052118D01*
X161055214Y-95336015D02*
X161046038Y-95306782D01*
X199329256Y-97026636D02*
X199358710Y-97020676D01*
X302562369Y-108314133D02*
X302584022Y-108287473D01*
X301364610Y-108879987D02*
X301350841Y-108895087D01*
X302401262Y-89014088D02*
X302320542Y-88862190D01*
X302376654Y-145970264D02*
X302316932Y-145934333D01*
X301219454Y-109213907D02*
X301218568Y-109235251D01*
X59728399Y-145672210D02*
X59747796Y-145663903D01*
X58926882Y-145932661D02*
X58897432Y-145951214D01*
X302659371Y-108172616D02*
X302675255Y-108142025D01*
X200039487Y-96371303D02*
X200050370Y-96327845D01*
X161542895Y-96849792D02*
X161577011Y-96878479D01*
X302729596Y-146464454D02*
X302709421Y-146397752D01*
X302762651Y-107268512D02*
X302762300Y-107768409D01*
X58675202Y-146165170D02*
X58655773Y-146193516D01*
X301227067Y-109151080D02*
X301223718Y-109171803D01*
X60927069Y-87244034D02*
X60764708Y-87300317D01*
X302309929Y-165128366D02*
X302390708Y-164976476D01*
X60031536Y-109052118D02*
X60016464Y-109013825D01*
X300023408Y-87174389D02*
X299853609Y-87142620D01*
X60296040Y-166436354D02*
X60448260Y-166516074D01*
X58635471Y-164316655D02*
X58684669Y-164481301D01*
X160363621Y-94732189D02*
X160303991Y-94721356D01*
X60061226Y-109216552D02*
X60058619Y-109174052D01*
X199704538Y-96881301D02*
X199738654Y-96852626D01*
X207662742Y-179550643D02*
X208433590Y-179469325D01*
X300974564Y-166455102D02*
X301122818Y-166367866D01*
D12*
X280450680Y-166890979D02*
X280229662Y-166891079D01*
X280012321Y-166892951D01*
X279785196Y-166898953D01*
X279534826Y-166911444D01*
X279247749Y-166932781D01*
X278910503Y-166965323D01*
X278509628Y-167011427D01*
X278031662Y-167073453D01*
X277463144Y-167153757D01*
X276790612Y-167254698D01*
X276000605Y-167378633D01*
X275079661Y-167527923D01*
X274014319Y-167704923D01*
X272791118Y-167911992D01*
X271396597Y-168151489D01*
X269817293Y-168425772D01*
X268039746Y-168737198D01*
X266050494Y-169088126D01*
X263836076Y-169480913D01*
X261383031Y-169917918D01*
X258677896Y-170401500D01*
X255707211Y-170934015D01*
X252457514Y-171517823D01*
X248915345Y-172155281D01*
X245067240Y-172848747D01*
X240899740Y-173600580D01*
X236399383Y-174413137D01*
X231552707Y-175288777D01*
X226346251Y-176229857D01*
X220766554Y-177238737D01*
X214800154Y-178317773D01*
X208433590Y-179469325D01*
D10*
X162041791Y-97037383D02*
X162071832Y-97040463D01*
X302515877Y-108364742D02*
X302539645Y-108339901D01*
X302719528Y-89991303D02*
X302686826Y-89822101D01*
X199669038Y-96908511D02*
X199704538Y-96881301D01*
X59854422Y-145599785D02*
X59870435Y-145586893D01*
X301291218Y-108977799D02*
X301281237Y-108995652D01*
X302686826Y-89822101D02*
X302645834Y-89655031D01*
X199935619Y-96615434D02*
X199957338Y-96576997D01*
X59900828Y-108846718D02*
X59870435Y-108819214D01*
X302765138Y-90683414D02*
X302762651Y-107268512D01*
X301122818Y-166367866D02*
X301266811Y-166273201D01*
X58881579Y-88995036D02*
X58808544Y-89150570D01*
X301794267Y-165822779D02*
X301911918Y-165693572D01*
X301266811Y-166273201D02*
X301406248Y-166171234D01*
X160831887Y-94981237D02*
X160787699Y-94941234D01*
X58518235Y-107785484D02*
X58520513Y-107821286D01*
X302645834Y-89655031D02*
X302596667Y-89490394D01*
X301670271Y-165945896D02*
X301794267Y-165822779D01*
X58695757Y-146137645D02*
X58675202Y-146165170D01*
X59885909Y-145573422D02*
X59900828Y-145559389D01*
X300191013Y-87214477D02*
X300023408Y-87174389D01*
D11*
X63504720Y-162940000D02*
G75*
G02*
X61304720Y-162940000I-1100000J0D01*
G01*
X61304720Y-162940000D02*
G75*
G02*
X63504720Y-162940000I1100000J0D01*
G01*
D10*
X58841193Y-145991699D02*
X58814460Y-146013561D01*
X160273798Y-94717328D02*
X160243379Y-94714240D01*
X161421023Y-96721439D02*
X161449228Y-96755456D01*
X302683973Y-146333339D02*
X302653473Y-146271496D01*
X58743340Y-89309439D02*
X58686081Y-89471343D01*
X302761534Y-107804538D02*
X302762300Y-107768409D01*
X58529495Y-146514344D02*
X58524275Y-146549388D01*
X58868860Y-145970905D02*
X58841193Y-145991699D01*
X302586265Y-164500214D02*
X302635473Y-164335600D01*
X58897432Y-108454748D02*
X58957182Y-108490641D01*
X60003789Y-166254402D02*
X60147784Y-166349087D01*
X58655773Y-108212565D02*
X58695757Y-108268421D01*
X58529495Y-107891769D02*
X58536145Y-107926380D01*
X58561724Y-163980388D02*
X58594451Y-164149583D01*
X299322709Y-166890979D02*
X299497315Y-166885002D01*
X302624004Y-108231616D02*
X302642278Y-108202492D01*
X58544196Y-107960522D02*
X58564395Y-108027260D01*
D13*
X237999471Y-127236688D02*
X234563776Y-127904519D01*
X233953187Y-124763312D01*
X237388882Y-124095481D01*
X237999471Y-127236688D01*
X257038746Y-125306219D02*
X253543543Y-125489395D01*
X253376068Y-122293781D01*
X256871271Y-122110605D01*
X257038746Y-125306219D01*
X77349500Y-121255000D02*
X73849500Y-121255000D01*
X73849500Y-124455000D01*
X77349500Y-124455000D01*
X77349500Y-121255000D01*
X213775657Y-112306541D02*
X210318748Y-112854062D01*
X209818157Y-109693459D01*
X213275066Y-109145938D01*
X213775657Y-112306541D01*
X157405646Y-130609124D02*
X156960292Y-133777982D01*
X153494354Y-133290876D01*
X153939708Y-130122018D01*
X157405646Y-130609124D01*
X118481947Y-123797262D02*
X118091965Y-126973409D01*
X114618053Y-126546866D01*
X115008035Y-123370719D01*
X118481947Y-123797262D01*
X177774134Y-132068460D02*
X177662456Y-135266510D01*
X174164588Y-135144362D01*
X174276266Y-131946312D01*
X177774134Y-132068460D01*
X132923142Y-106588312D02*
X132312553Y-109729519D01*
X128876858Y-109061688D01*
X129487447Y-105920481D01*
X132923142Y-106588312D01*
X244933857Y-167943986D02*
X241504120Y-168641773D01*
X240866143Y-165506014D01*
X244295880Y-164808227D01*
X244933857Y-167943986D01*
X82150000Y-140785000D02*
X78650000Y-140785000D01*
X78650000Y-143985000D01*
X82150000Y-143985000D01*
X82150000Y-140785000D01*
X271402657Y-105010912D02*
X267903190Y-105071995D01*
X267847343Y-101872482D01*
X271346810Y-101811399D01*
X271402657Y-105010912D01*
X113607659Y-103491690D02*
X113273168Y-106674160D01*
X109792341Y-106308310D01*
X110126832Y-103125840D01*
X113607659Y-103491690D01*
X152253750Y-109943459D02*
X151753159Y-113104062D01*
X148296250Y-112556541D01*
X148796841Y-109395938D01*
X152253750Y-109943459D01*
X159681947Y-170200198D02*
X159291965Y-173376345D01*
X155818053Y-172949802D01*
X156208035Y-169773655D01*
X159681947Y-170200198D01*
X193442295Y-114749029D02*
X189950821Y-114993176D01*
X189727601Y-111800971D01*
X193219075Y-111556824D01*
X193442295Y-114749029D01*
X172307347Y-111950971D02*
X172084127Y-115143176D01*
X168592653Y-114899029D01*
X168815873Y-111706824D01*
X172307347Y-111950971D01*
X137661638Y-127531505D02*
X136996321Y-130661578D01*
X133572804Y-129933887D01*
X134238121Y-126803814D01*
X137661638Y-127531505D01*
X287949500Y-140710000D02*
X284449500Y-140710000D01*
X284449500Y-143910000D01*
X287949500Y-143910000D01*
X287949500Y-140710000D01*
X121151251Y-164853192D02*
X120595576Y-168004577D01*
X117148749Y-167396808D01*
X117704424Y-164245423D01*
X121151251Y-164853192D01*
X75000000Y-100560000D02*
X71500000Y-100560000D01*
X71500000Y-103760000D01*
X75000000Y-103760000D01*
X75000000Y-100560000D01*
X146861638Y-148981505D02*
X146196321Y-152111578D01*
X142772804Y-151383887D01*
X143438121Y-148253814D01*
X146861638Y-148981505D01*
X290549500Y-101639473D02*
X287049500Y-101639473D01*
X287049500Y-104839473D01*
X290549500Y-104839473D01*
X290549500Y-101639473D01*
X233099471Y-109036688D02*
X229663776Y-109704519D01*
X229053187Y-106563312D01*
X232488882Y-105895481D01*
X233099471Y-109036688D01*
X266604773Y-144037951D02*
X263106905Y-144160099D01*
X262995227Y-140962049D01*
X266493095Y-140839901D01*
X266604773Y-144037951D01*
X198670230Y-134501389D02*
X195183548Y-134806434D01*
X194904650Y-131618611D01*
X198391332Y-131313566D01*
X198670230Y-134501389D01*
X97082790Y-161408611D02*
X96803892Y-164596434D01*
X93317210Y-164291389D01*
X93596108Y-161103566D01*
X97082790Y-161408611D01*
X94212108Y-101881507D02*
X94156261Y-105081020D01*
X90656794Y-105019937D01*
X90712641Y-101820424D01*
X94212108Y-101881507D01*
X99054773Y-121937049D02*
X98943095Y-125135099D01*
X95445227Y-125012951D01*
X95556905Y-121814901D01*
X99054773Y-121937049D01*
X290449500Y-159815000D02*
X286949500Y-159815000D01*
X286949500Y-163015000D01*
X290449500Y-163015000D01*
X290449500Y-159815000D01*
X252197542Y-106033310D02*
X248716715Y-106399160D01*
X248382224Y-103216690D01*
X251863051Y-102850840D01*
X252197542Y-106033310D01*
X219319417Y-131376191D02*
X215895900Y-132103882D01*
X215230583Y-128973809D01*
X218654100Y-128246118D01*
X219319417Y-131376191D01*
X167382790Y-151433611D02*
X167103892Y-154621434D01*
X163617210Y-154316389D01*
X163896108Y-151128566D01*
X167382790Y-151433611D01*
X208978750Y-153156541D02*
X205521841Y-153704062D01*
X205021250Y-150543459D01*
X208478159Y-149995938D01*
X208978750Y-153156541D01*
X74975000Y-160110000D02*
X71475000Y-160110000D01*
X71475000Y-163310000D01*
X74975000Y-163310000D01*
X74975000Y-160110000D01*
X247263108Y-145664224D02*
X243811108Y-146241890D01*
X243282956Y-143085776D01*
X246734956Y-142508110D01*
X247263108Y-145664224D01*
X187550000Y-151970000D02*
X184050000Y-151970000D01*
X184050000Y-155170000D01*
X187550000Y-155170000D01*
X187550000Y-151970000D01*
X283249500Y-121590000D02*
X279749500Y-121590000D01*
X279749500Y-124790000D01*
X283249500Y-124790000D01*
X283249500Y-121590000D01*
X228584326Y-149283304D02*
X225167290Y-150040843D01*
X224474684Y-146916696D01*
X227891720Y-146159157D01*
X228584326Y-149283304D01*
X268574223Y-164204802D02*
X265100311Y-164631345D01*
X264710329Y-161455198D01*
X268184241Y-161028655D01*
X268574223Y-164204802D01*
X108857790Y-142008611D02*
X108578892Y-145196434D01*
X105092210Y-144891389D01*
X105371108Y-141703566D01*
X108857790Y-142008611D01*
X128273142Y-144838312D02*
X127662553Y-147979519D01*
X124226858Y-147311688D01*
X124837447Y-144170481D01*
X128273142Y-144838312D01*
X210681947Y-173249802D02*
X207208035Y-173676345D01*
X206818053Y-170500198D01*
X210291965Y-170073655D01*
X210681947Y-173249802D01*
M02*
